<svg version="1.1" id="Layer_1" xmlns="http://www.w3.org/2000/svg" xmlns:xlink="http://www.w3.org/1999/xlink" x="0px" y="0px"
	 width="100%" viewBox="0 0 706 706" enable-background="new 0 0 706 706" xml:space="preserve">
<path fill="none" opacity="1.000000" stroke="none" 
	d="
M707.000000,96.999992 
	C707.000000,268.024902 707.000000,439.049805 706.604492,610.503418 
	C703.818848,618.377686 701.714050,625.929626 698.983459,633.248169 
	C691.701416,652.765015 679.299072,668.815918 663.321655,681.787598 
	C648.561646,693.771057 631.501282,701.574890 612.658936,705.142273 
	C612.011963,705.264832 611.548828,706.358826 611.000000,707.000000 
	C439.975098,707.000000 268.950195,707.000000 97.496674,706.604675 
	C90.393005,704.109985 83.667679,702.156982 77.052269,699.884094 
	C56.648991,692.873718 40.004398,680.197632 26.587580,663.750671 
	C14.589589,649.042908 6.555648,632.018616 2.908013,613.155518 
	C2.751157,612.344360 1.657343,611.714355 1.000000,611.000000 
	C1.000000,439.975098 1.000000,268.950195 1.395524,97.496567 
	C4.178263,89.638245 6.267809,82.096756 9.010336,74.800713 
	C16.283636,55.451286 28.578287,39.538692 44.410149,26.576996 
	C59.262764,14.417011 76.389137,6.537486 95.346321,2.857352 
	C95.993355,2.731744 96.453011,1.640926 97.000000,1.000001 
	C268.024902,1.000000 439.049805,1.000000 610.503357,1.395423 
	C611.435486,2.158005 611.896973,2.759356 612.448608,2.858452 
	C631.684875,6.314112 649.004333,14.414794 663.903137,26.693483 
	C685.161987,44.213753 699.007263,66.743088 705.019836,93.852623 
	C705.272583,94.992088 706.321838,95.954887 707.000000,96.999992 
M485.580322,388.500092 
	C485.579346,356.347290 485.560760,324.194458 485.587036,292.041656 
	C485.596191,280.844788 481.395935,271.884796 471.554840,266.164398 
	C438.157196,246.751068 404.666138,227.498367 371.273254,208.076797 
	C360.584351,201.860046 350.241669,202.086533 339.614166,208.279404 
	C306.381226,227.644974 273.031677,246.810394 239.789154,266.159668 
	C230.922867,271.320404 225.972977,279.259033 225.933502,289.551453 
	C225.780731,329.367096 225.788834,369.183899 225.921280,408.999664 
	C225.956238,419.509552 231.027222,427.508606 240.051987,432.760223 
	C273.434113,452.185822 306.892151,471.480927 340.291962,490.876221 
	C350.601135,496.862793 360.743652,496.825439 371.055847,490.832977 
	C404.304565,471.511963 437.601379,452.273621 470.884277,433.011475 
	C480.510956,427.440155 485.328796,419.032166 485.549683,407.991669 
	C485.672943,401.830048 485.577209,395.664032 485.580322,388.500092 
M318.112274,143.643860 
	C313.513947,146.335815 309.049500,149.308105 304.258423,151.596542 
	C302.002716,152.673996 298.901215,153.268433 296.558075,152.653198 
	C286.195404,149.932358 276.299103,154.861771 273.466003,164.658646 
	C270.540985,174.773300 276.381592,185.098373 286.473816,187.653992 
	C296.116943,190.095901 306.181763,183.923340 308.424591,173.724838 
	C309.163025,170.367050 310.876434,168.670197 313.640137,167.093811 
	C330.276947,157.604568 346.923737,148.124695 363.345856,138.272812 
	C367.513123,135.772812 370.639801,135.835114 374.690399,138.263855 
	C389.543335,147.169724 404.552185,155.817123 419.547729,164.483246 
	C463.530182,189.901276 507.490234,215.359024 551.601929,240.551010 
	C555.787720,242.941528 556.801453,245.580597 556.795166,250.012650 
	C556.681213,330.503723 556.651855,410.995117 556.849060,491.485840 
	C556.862000,496.772491 555.030396,499.432007 550.669800,501.986206 
	C525.099854,516.963684 499.686615,532.209229 474.254761,547.421631 
	C433.385223,571.868225 392.564453,596.396667 351.618073,620.713745 
	C349.728058,621.836243 346.556152,622.007751 344.418274,621.300781 
	C333.921844,617.829651 323.716827,622.513550 320.232178,632.828430 
	C317.105652,642.083252 322.393524,652.376282 331.940460,655.618774 
	C341.542908,658.880249 351.836884,653.168701 355.196442,642.996155 
	C355.851349,641.013123 357.257690,638.761902 358.975769,637.722534 
	C393.308624,616.951233 427.716064,596.302856 462.155151,575.707703 
	C490.591309,558.702332 519.088623,541.799255 547.556824,524.847351 
	C550.330383,523.195740 553.089478,521.519958 556.711914,519.339783 
	C556.711914,529.674255 556.626038,538.790588 556.742371,547.904358 
	C556.818787,553.896545 557.506226,559.974182 551.219910,563.741760 
	C550.584290,564.122681 550.271973,565.086609 549.874878,565.815552 
	C545.224915,574.349915 547.741699,584.737427 555.756775,590.140381 
	C562.996643,595.020752 573.622742,593.472656 579.329224,586.706177 
	C585.612549,579.255493 585.611389,569.050232 578.555664,562.319153 
	C575.284180,559.198181 574.321228,556.128418 574.399841,551.873230 
	C574.627563,539.545471 574.740845,527.202454 574.351746,514.882812 
	C574.197388,509.994354 576.024475,507.385773 580.054565,505.087646 
	C591.769287,498.407440 603.180664,491.191986 614.939819,484.594330 
	C620.433655,481.511902 622.515564,477.472992 622.433472,471.241913 
	C622.165649,450.914307 622.372620,430.580841 622.291504,410.250061 
	C622.279480,407.245667 622.934998,405.114166 625.449158,402.997681 
	C633.781860,395.983002 633.986084,384.561279 626.316284,376.479523 
	C619.777039,369.589050 607.911438,369.496643 601.104736,376.283142 
	C593.404297,383.960693 593.651672,395.453339 601.392700,403.023804 
	C602.828491,404.427917 603.983582,406.874634 604.003845,408.853119 
	C604.197815,427.849060 604.051880,446.848267 604.189697,465.845215 
	C604.212036,468.928589 603.188354,470.678467 600.536743,472.165588 
	C593.567200,476.074127 586.762573,480.275818 579.869324,484.321594 
	C578.409424,485.178436 576.851624,485.868530 574.861816,486.877350 
	C574.861816,409.025513 574.861816,332.142090 574.861816,254.229370 
	C580.849121,257.638336 586.293152,260.402313 591.327393,263.777527 
	C593.213379,265.041931 594.886902,267.566956 595.373169,269.797180 
	C596.798035,276.331818 600.131653,281.145905 606.263245,283.736664 
	C613.804871,286.923187 621.970764,284.873260 627.141235,278.795135 
	C632.341614,272.681854 633.058655,264.595520 628.993713,257.904419 
	C624.594727,250.663498 617.130005,247.713348 608.832825,249.282806 
	C606.367249,249.749191 603.268494,249.289764 601.038391,248.136185 
	C593.648560,244.313568 586.600708,239.834793 579.261169,235.907776 
	C575.776978,234.043610 574.311279,231.804520 574.377808,227.685074 
	C574.630981,212.024246 574.411011,196.356400 574.512878,180.692139 
	C574.544067,175.892853 572.869934,172.660004 568.493591,170.194931 
	C551.228882,160.470200 534.148438,150.418671 516.979309,140.523682 
	C513.503052,138.520218 510.559509,136.673080 509.665039,131.935196 
	C508.449066,125.494087 503.930054,121.106781 497.476990,119.256386 
	C489.841370,117.066872 481.925415,119.900536 477.535645,126.159073 
	C473.199432,132.341171 473.247955,141.152100 477.652283,147.328293 
	C482.109314,153.578415 489.771729,156.013107 497.678528,154.181442 
	C500.016083,153.639923 503.105072,153.472977 505.050995,154.561798 
	C521.327576,163.669235 537.464050,173.032028 553.491882,182.571274 
	C555.080933,183.516998 556.505493,186.124649 556.570557,188.010468 
	C556.886353,197.165222 556.712402,206.336884 556.712036,215.502548 
	C556.711914,217.545486 556.712036,219.588409 556.712036,222.446808 
	C554.014465,221.030426 552.376221,220.239243 550.803650,219.334091 
	C532.324402,208.698196 513.845947,198.060959 495.384949,187.393402 
	C455.439972,164.311478 415.491333,141.235748 375.585754,118.085846 
	C371.083679,115.474083 367.031097,115.414284 362.475647,118.092491 
	C347.975922,126.617096 333.332458,134.897232 318.112274,143.643860 
M225.401993,161.821091 
	C267.414795,137.990219 309.438080,114.177788 351.418457,90.289963 
	C354.451050,88.564346 357.085266,87.861160 360.726715,88.943665 
	C370.795105,91.936729 380.811920,85.866676 383.100281,75.955406 
	C385.464539,65.715149 379.492645,55.997974 369.506287,53.836018 
	C359.466614,51.662525 350.054443,57.961754 347.598877,68.022133 
	C347.057709,70.239265 345.269043,72.797432 343.318542,73.925735 
	C322.557587,85.935310 301.637054,97.668671 280.781738,109.515526 
	C241.820847,131.647247 202.876022,153.807266 163.907516,175.925537 
	C163.125977,176.369156 162.136292,176.446014 160.662598,176.855392 
	C160.662598,172.595947 160.656799,168.785980 160.663895,164.976028 
	C160.676056,158.442612 159.206924,151.458572 166.370193,147.158447 
	C167.110916,146.713791 167.428146,145.495758 167.846375,144.592361 
	C171.877579,135.884659 168.939758,126.044189 160.820602,120.993065 
	C153.433792,116.397560 142.859299,118.375694 137.386414,125.376831 
	C131.491074,132.918396 132.059891,143.277374 139.229721,149.782669 
	C141.881058,152.188263 142.800278,154.554993 142.719742,157.972565 
	C142.523468,166.300308 142.492630,174.640518 142.732300,182.966003 
	C142.835800,186.560928 141.773529,188.664215 138.495590,190.456497 
	C126.366158,197.088531 114.507629,204.216202 102.374481,210.841125 
	C97.494926,213.505463 95.670982,217.116211 95.718262,222.550064 
	C95.895180,242.879532 95.742355,263.211700 95.836166,283.542267 
	C95.850807,286.716125 95.082458,288.917603 92.637650,291.313660 
	C90.044609,293.854950 87.982361,297.509003 87.030449,301.039001 
	C84.800346,309.309021 89.792740,318.159760 97.711174,321.336853 
	C106.052216,324.683533 115.476540,321.689728 120.071594,314.233734 
	C124.544388,306.976135 123.133232,297.136536 117.085907,291.253143 
	C115.586586,289.794464 113.963577,287.538574 113.940247,285.630249 
	C113.707924,266.635254 113.722725,247.635468 113.929451,228.639893 
	C113.948112,226.925705 115.382912,224.582153 116.864922,223.642120 
	C122.766624,219.898651 128.933807,216.570938 135.032471,213.142242 
	C137.249847,211.895630 139.550461,210.797028 142.252289,209.404541 
	C142.252289,293.273865 142.252289,376.292084 142.252289,460.140961 
	C136.603149,456.872070 131.449005,454.211517 126.685310,450.976044 
	C124.754837,449.664948 123.011177,447.301758 122.334862,445.068359 
	C120.390694,438.648193 116.608887,434.176361 110.263626,432.141083 
	C102.422623,429.625946 94.468750,432.384186 89.913887,438.903290 
	C85.219040,445.622742 85.333145,453.588501 90.221207,460.357361 
	C94.719498,466.586517 103.184998,469.350403 110.756233,466.479553 
	C113.593727,465.403625 115.626228,465.615753 118.086472,467.095306 
	C124.937050,471.215179 131.825241,475.289124 138.868683,479.063751 
	C141.783554,480.625854 142.761734,482.503998 142.726898,485.754852 
	C142.566162,500.751404 142.718323,515.751038 142.622147,530.748718 
	C142.592758,535.332764 144.101593,538.584961 148.280197,540.964966 
	C165.645569,550.855774 182.861359,561.008789 200.188538,570.967285 
	C203.887054,573.093018 206.450119,575.377502 207.634689,580.030884 
	C210.178558,590.023865 220.257919,595.090698 229.984726,592.215698 
	C239.247681,589.477844 244.986465,579.204224 242.338791,570.099182 
	C239.425568,560.080994 229.610321,554.398132 219.652649,557.468201 
	C216.243668,558.519104 213.696503,558.060974 210.798584,556.360840 
	C197.153076,548.355408 183.617950,540.127502 169.650558,532.719727 
	C162.810226,529.091797 159.650208,524.879944 160.484787,516.874878 
	C161.301590,509.040344 160.662598,501.054016 160.662598,492.372162 
	C162.714355,493.293945 163.923691,493.713593 165.011124,494.343597 
	C219.906830,526.146667 274.796570,557.960083 329.669189,589.802979 
	C333.635284,592.104553 337.356537,592.274231 341.421387,589.883606 
	C359.219177,579.416138 377.114105,569.113831 394.920441,558.660767 
	C397.683411,557.038696 400.086151,556.688538 403.309021,557.730286 
	C413.893951,561.151611 423.387848,555.621582 426.413116,544.737427 
	C428.925507,535.698547 422.879517,525.407593 413.613800,522.951538 
	C403.553192,520.284790 393.781158,526.407410 391.043304,536.711182 
	C390.478729,538.835938 388.879059,541.286682 387.039246,542.377319 
	C370.854095,551.972168 354.532471,561.338867 338.155701,570.604309 
	C336.899536,571.315002 334.555786,571.368408 333.321686,570.665894 
	C310.169708,557.487183 287.087250,544.185730 264.034729,530.833069 
	C231.032013,511.717010 198.098068,492.481750 165.030106,473.479462 
	C161.858353,471.656860 160.585556,469.817596 160.589523,466.149841 
	C160.684250,378.493317 160.681274,290.836578 160.595413,203.180023 
	C160.592026,199.726868 161.704803,197.846832 164.750198,196.147263 
	C184.822800,184.945282 204.771011,173.520370 225.401993,161.821091 
z"/>
<path fill="#000000" opacity="1.000000" stroke="none" 
	d="
M96.531342,1.000001 
	C96.453011,1.640926 95.993355,2.731744 95.346321,2.857352 
	C76.389137,6.537486 59.262764,14.417011 44.410149,26.576996 
	C28.578287,39.538692 16.283636,55.451286 9.010336,74.800713 
	C6.267809,82.096756 4.178263,89.638245 1.395524,97.033920 
	C1.000000,65.073067 1.000000,33.146141 1.000000,1.000000 
	C32.687225,1.000000 64.374954,1.000000 96.531342,1.000001 
z"/>
<path fill="#000000" opacity="1.000000" stroke="none" 
	d="
M707.000000,96.531334 
	C706.321838,95.954887 705.272583,94.992088 705.019836,93.852623 
	C699.007263,66.743088 685.161987,44.213753 663.903137,26.693483 
	C649.004333,14.414794 631.684875,6.314112 612.448608,2.858452 
	C611.896973,2.759356 611.435486,2.158005 610.966003,1.395423 
	C642.926941,1.000000 674.853821,1.000000 707.000000,1.000000 
	C707.000000,32.687225 707.000000,64.374954 707.000000,96.531334 
z"/>
<path fill="#000000" opacity="1.000000" stroke="none" 
	d="
M1.000000,611.468628 
	C1.657343,611.714355 2.751157,612.344360 2.908013,613.155518 
	C6.555648,632.018616 14.589589,649.042908 26.587580,663.750671 
	C40.004398,680.197632 56.648991,692.873718 77.052269,699.884094 
	C83.667679,702.156982 90.393005,704.109985 97.034027,706.604675 
	C65.073074,707.000000 33.146149,707.000000 1.000000,707.000000 
	C1.000000,675.312805 1.000000,643.625061 1.000000,611.468628 
z"/>
<path fill="#000000" opacity="1.000000" stroke="none" 
	d="
M611.468628,707.000000 
	C611.548828,706.358826 612.011963,705.264832 612.658936,705.142273 
	C631.501282,701.574890 648.561646,693.771057 663.321655,681.787598 
	C679.299072,668.815918 691.701416,652.765015 698.983459,633.248169 
	C701.714050,625.929626 703.818848,618.377686 706.604492,610.966064 
	C707.000000,642.926941 707.000000,674.853821 707.000000,707.000000 
	C675.312805,707.000000 643.625061,707.000000 611.468628,707.000000 
z"/>
<path fill="#A3DBF5" opacity="1.000000" stroke="none" 
	d="
M485.580261,389.000061 
	C485.577209,395.664032 485.672943,401.830048 485.549683,407.991669 
	C485.328796,419.032166 480.510956,427.440155 470.884277,433.011475 
	C437.601379,452.273621 404.304565,471.511963 371.055847,490.832977 
	C360.743652,496.825439 350.601135,496.862793 340.291962,490.876221 
	C306.892151,471.480927 273.434113,452.185822 240.051987,432.760223 
	C231.027222,427.508606 225.956238,419.509552 225.921280,408.999664 
	C225.788834,369.183899 225.780731,329.367096 225.933502,289.551453 
	C225.972977,279.259033 230.922867,271.320404 239.789154,266.159668 
	C273.031677,246.810394 306.381226,227.644974 339.614166,208.279404 
	C350.241669,202.086533 360.584351,201.860046 371.273254,208.076797 
	C404.666138,227.498367 438.157196,246.751068 471.554840,266.164398 
	C481.395935,271.884796 485.596191,280.844788 485.587036,292.041656 
	C485.560760,324.194458 485.579346,356.347290 485.580261,389.000061 
z"/>
<path fill="#F7AC3D" opacity="1.000000" stroke="none" 
	d="
M318.428406,143.457825 
	C333.332458,134.897232 347.975922,126.617096 362.475647,118.092491 
	C367.031097,115.414284 371.083679,115.474083 375.585754,118.085846 
	C415.491333,141.235748 455.439972,164.311478 495.384949,187.393402 
	C513.845947,198.060959 532.324402,208.698196 550.803650,219.334091 
	C552.376221,220.239243 554.014465,221.030426 556.712036,222.446808 
	C556.712036,219.588409 556.711914,217.545486 556.712036,215.502548 
	C556.712402,206.336884 556.886353,197.165222 556.570557,188.010468 
	C556.505493,186.124649 555.080933,183.516998 553.491882,182.571274 
	C537.464050,173.032028 521.327576,163.669235 505.050995,154.561798 
	C503.105072,153.472977 500.016083,153.639923 497.678528,154.181442 
	C489.771729,156.013107 482.109314,153.578415 477.652283,147.328293 
	C473.247955,141.152100 473.199432,132.341171 477.535645,126.159073 
	C481.925415,119.900536 489.841370,117.066872 497.476990,119.256386 
	C503.930054,121.106781 508.449066,125.494087 509.665039,131.935196 
	C510.559509,136.673080 513.503052,138.520218 516.979309,140.523682 
	C534.148438,150.418671 551.228882,160.470200 568.493591,170.194931 
	C572.869934,172.660004 574.544067,175.892853 574.512878,180.692139 
	C574.411011,196.356400 574.630981,212.024246 574.377808,227.685074 
	C574.311279,231.804520 575.776978,234.043610 579.261169,235.907776 
	C586.600708,239.834793 593.648560,244.313568 601.038391,248.136185 
	C603.268494,249.289764 606.367249,249.749191 608.832825,249.282806 
	C617.130005,247.713348 624.594727,250.663498 628.993713,257.904419 
	C633.058655,264.595520 632.341614,272.681854 627.141235,278.795135 
	C621.970764,284.873260 613.804871,286.923187 606.263245,283.736664 
	C600.131653,281.145905 596.798035,276.331818 595.373169,269.797180 
	C594.886902,267.566956 593.213379,265.041931 591.327393,263.777527 
	C586.293152,260.402313 580.849121,257.638336 574.861816,254.229370 
	C574.861816,332.142090 574.861816,409.025513 574.861816,486.877350 
	C576.851624,485.868530 578.409424,485.178436 579.869324,484.321594 
	C586.762573,480.275818 593.567200,476.074127 600.536743,472.165588 
	C603.188354,470.678467 604.212036,468.928589 604.189697,465.845215 
	C604.051880,446.848267 604.197815,427.849060 604.003845,408.853119 
	C603.983582,406.874634 602.828491,404.427917 601.392700,403.023804 
	C593.651672,395.453339 593.404297,383.960693 601.104736,376.283142 
	C607.911438,369.496643 619.777039,369.589050 626.316284,376.479523 
	C633.986084,384.561279 633.781860,395.983002 625.449158,402.997681 
	C622.934998,405.114166 622.279480,407.245667 622.291504,410.250061 
	C622.372620,430.580841 622.165649,450.914307 622.433472,471.241913 
	C622.515564,477.472992 620.433655,481.511902 614.939819,484.594330 
	C603.180664,491.191986 591.769287,498.407440 580.054565,505.087646 
	C576.024475,507.385773 574.197388,509.994354 574.351746,514.882812 
	C574.740845,527.202454 574.627563,539.545471 574.399841,551.873230 
	C574.321228,556.128418 575.284180,559.198181 578.555664,562.319153 
	C585.611389,569.050232 585.612549,579.255493 579.329224,586.706177 
	C573.622742,593.472656 562.996643,595.020752 555.756775,590.140381 
	C547.741699,584.737427 545.224915,574.349915 549.874878,565.815552 
	C550.271973,565.086609 550.584290,564.122681 551.219910,563.741760 
	C557.506226,559.974182 556.818787,553.896545 556.742371,547.904358 
	C556.626038,538.790588 556.711914,529.674255 556.711914,519.339783 
	C553.089478,521.519958 550.330383,523.195740 547.556824,524.847351 
	C519.088623,541.799255 490.591309,558.702332 462.155151,575.707703 
	C427.716064,596.302856 393.308624,616.951233 358.975769,637.722534 
	C357.257690,638.761902 355.851349,641.013123 355.196442,642.996155 
	C351.836884,653.168701 341.542908,658.880249 331.940460,655.618774 
	C322.393524,652.376282 317.105652,642.083252 320.232178,632.828430 
	C323.716827,622.513550 333.921844,617.829651 344.418274,621.300781 
	C346.556152,622.007751 349.728058,621.836243 351.618073,620.713745 
	C392.564453,596.396667 433.385223,571.868225 474.254761,547.421631 
	C499.686615,532.209229 525.099854,516.963684 550.669800,501.986206 
	C555.030396,499.432007 556.862000,496.772491 556.849060,491.485840 
	C556.651855,410.995117 556.681213,330.503723 556.795166,250.012650 
	C556.801453,245.580597 555.787720,242.941528 551.601929,240.551010 
	C507.490234,215.359024 463.530182,189.901276 419.547729,164.483246 
	C404.552185,155.817123 389.543335,147.169724 374.690399,138.263855 
	C370.639801,135.835114 367.513123,135.772812 363.345856,138.272812 
	C346.923737,148.124695 330.276947,157.604568 313.640137,167.093811 
	C310.876434,168.670197 309.163025,170.367050 308.424591,173.724838 
	C306.181763,183.923340 296.116943,190.095901 286.473816,187.653992 
	C276.381592,185.098373 270.540985,174.773300 273.466003,164.658646 
	C276.299103,154.861771 286.195404,149.932358 296.558075,152.653198 
	C298.901215,153.268433 302.002716,152.673996 304.258423,151.596542 
	C309.049500,149.308105 313.513947,146.335815 318.428406,143.457825 
z"/>
<path fill="#F6AB3E" opacity="1.000000" stroke="none" 
	d="
M225.080872,161.994614 
	C204.771011,173.520370 184.822800,184.945282 164.750198,196.147263 
	C161.704803,197.846832 160.592026,199.726868 160.595413,203.180023 
	C160.681274,290.836578 160.684250,378.493317 160.589523,466.149841 
	C160.585556,469.817596 161.858353,471.656860 165.030106,473.479462 
	C198.098068,492.481750 231.032013,511.717010 264.034729,530.833069 
	C287.087250,544.185730 310.169708,557.487183 333.321686,570.665894 
	C334.555786,571.368408 336.899536,571.315002 338.155701,570.604309 
	C354.532471,561.338867 370.854095,551.972168 387.039246,542.377319 
	C388.879059,541.286682 390.478729,538.835938 391.043304,536.711182 
	C393.781158,526.407410 403.553192,520.284790 413.613800,522.951538 
	C422.879517,525.407593 428.925507,535.698547 426.413116,544.737427 
	C423.387848,555.621582 413.893951,561.151611 403.309021,557.730286 
	C400.086151,556.688538 397.683411,557.038696 394.920441,558.660767 
	C377.114105,569.113831 359.219177,579.416138 341.421387,589.883606 
	C337.356537,592.274231 333.635284,592.104553 329.669189,589.802979 
	C274.796570,557.960083 219.906830,526.146667 165.011124,494.343597 
	C163.923691,493.713593 162.714355,493.293945 160.662598,492.372162 
	C160.662598,501.054016 161.301590,509.040344 160.484787,516.874878 
	C159.650208,524.879944 162.810226,529.091797 169.650558,532.719727 
	C183.617950,540.127502 197.153076,548.355408 210.798584,556.360840 
	C213.696503,558.060974 216.243668,558.519104 219.652649,557.468201 
	C229.610321,554.398132 239.425568,560.080994 242.338791,570.099182 
	C244.986465,579.204224 239.247681,589.477844 229.984726,592.215698 
	C220.257919,595.090698 210.178558,590.023865 207.634689,580.030884 
	C206.450119,575.377502 203.887054,573.093018 200.188538,570.967285 
	C182.861359,561.008789 165.645569,550.855774 148.280197,540.964966 
	C144.101593,538.584961 142.592758,535.332764 142.622147,530.748718 
	C142.718323,515.751038 142.566162,500.751404 142.726898,485.754852 
	C142.761734,482.503998 141.783554,480.625854 138.868683,479.063751 
	C131.825241,475.289124 124.937050,471.215179 118.086472,467.095306 
	C115.626228,465.615753 113.593727,465.403625 110.756233,466.479553 
	C103.184998,469.350403 94.719498,466.586517 90.221207,460.357361 
	C85.333145,453.588501 85.219040,445.622742 89.913887,438.903290 
	C94.468750,432.384186 102.422623,429.625946 110.263626,432.141083 
	C116.608887,434.176361 120.390694,438.648193 122.334862,445.068359 
	C123.011177,447.301758 124.754837,449.664948 126.685310,450.976044 
	C131.449005,454.211517 136.603149,456.872070 142.252289,460.140961 
	C142.252289,376.292084 142.252289,293.273865 142.252289,209.404541 
	C139.550461,210.797028 137.249847,211.895630 135.032471,213.142242 
	C128.933807,216.570938 122.766624,219.898651 116.864922,223.642120 
	C115.382912,224.582153 113.948112,226.925705 113.929451,228.639893 
	C113.722725,247.635468 113.707924,266.635254 113.940247,285.630249 
	C113.963577,287.538574 115.586586,289.794464 117.085907,291.253143 
	C123.133232,297.136536 124.544388,306.976135 120.071594,314.233734 
	C115.476540,321.689728 106.052216,324.683533 97.711174,321.336853 
	C89.792740,318.159760 84.800346,309.309021 87.030449,301.039001 
	C87.982361,297.509003 90.044609,293.854950 92.637650,291.313660 
	C95.082458,288.917603 95.850807,286.716125 95.836166,283.542267 
	C95.742355,263.211700 95.895180,242.879532 95.718262,222.550064 
	C95.670982,217.116211 97.494926,213.505463 102.374481,210.841125 
	C114.507629,204.216202 126.366158,197.088531 138.495590,190.456497 
	C141.773529,188.664215 142.835800,186.560928 142.732300,182.966003 
	C142.492630,174.640518 142.523468,166.300308 142.719742,157.972565 
	C142.800278,154.554993 141.881058,152.188263 139.229721,149.782669 
	C132.059891,143.277374 131.491074,132.918396 137.386414,125.376831 
	C142.859299,118.375694 153.433792,116.397560 160.820602,120.993065 
	C168.939758,126.044189 171.877579,135.884659 167.846375,144.592361 
	C167.428146,145.495758 167.110916,146.713791 166.370193,147.158447 
	C159.206924,151.458572 160.676056,158.442612 160.663895,164.976028 
	C160.656799,168.785980 160.662598,172.595947 160.662598,176.855392 
	C162.136292,176.446014 163.125977,176.369156 163.907516,175.925537 
	C202.876022,153.807266 241.820847,131.647247 280.781738,109.515526 
	C301.637054,97.668671 322.557587,85.935310 343.318542,73.925735 
	C345.269043,72.797432 347.057709,70.239265 347.598877,68.022133 
	C350.054443,57.961754 359.466614,51.662525 369.506287,53.836018 
	C379.492645,55.997974 385.464539,65.715149 383.100281,75.955406 
	C380.811920,85.866676 370.795105,91.936729 360.726715,88.943665 
	C357.085266,87.861160 354.451050,88.564346 351.418457,90.289963 
	C309.438080,114.177788 267.414795,137.990219 225.080872,161.994614 
z"/>
</svg>