<?xml version="1.0" encoding="UTF-8"?>
<svg xmlns="http://www.w3.org/2000/svg" xmlns:xlink="http://www.w3.org/1999/xlink" width="10000px" height="6000px" viewBox="0 0 1000 600" version="1.1">
<g id="surface1">
<path style=" stroke:none;fill-rule:nonzero;fill:rgb(7.058824%,26.666668%,51.764709%);fill-opacity:1;" d="M 705.855469 600.480469 C 470.570312 600.480469 235.523438 600.480469 0.480469 600.480469 C 0.480469 400.480469 0.480469 200.480469 0.480469 0.480469 C 333.8125 0.480469 667.144531 0.480469 1000.480469 0.480469 C 1000.480469 200.480469 1000.480469 400.480469 1000.480469 600.480469 C 902.351562 600.480469 804.222656 600.480469 705.855469 600.480469 M 526 284.953125 C 535.96875 279.21875 545.996094 273.582031 555.890625 267.71875 C 560.707031 264.863281 563.035156 260.4375 563.019531 254.714844 C 562.957031 235.679688 562.96875 216.644531 563.011719 197.613281 C 563.023438 191.621094 560.53125 187.191406 555.320312 184.230469 C 550.253906 181.351562 545.222656 178.402344 540.175781 175.484375 C 528.496094 168.722656 516.839844 161.914062 505.121094 155.21875 C 500.632812 152.652344 495.890625 152.519531 491.390625 155.101562 C 474.417969 164.84375 457.515625 174.703125 440.578125 184.496094 C 435.613281 187.367188 433.304688 191.640625 433.316406 197.347656 C 433.351562 216.460938 433.382812 235.574219 433.296875 254.6875 C 433.269531 260.84375 435.949219 265.179688 441.183594 268.1875 C 457.527344 277.578125 473.882812 286.945312 490.160156 296.445312 C 495.53125 299.582031 500.6875 299.652344 506 296.535156 C 512.542969 292.695312 519.117188 288.902344 526 284.953125 M 533.8125 349.40625 C 555.238281 336.613281 576.660156 323.820312 598.382812 310.851562 C 598.382812 316.902344 598.328125 322.492188 598.414062 328.078125 C 598.441406 329.703125 598.066406 330.84375 596.777344 331.988281 C 593.535156 334.875 592.949219 339.664062 595.21875 343.125 C 597.328125 346.34375 600.328125 348.003906 604.1875 347.429688 C 607.890625 346.878906 610.539062 344.679688 611.605469 341.085938 C 612.695312 337.410156 611.679688 334.179688 608.785156 331.523438 C 608.121094 330.917969 607.503906 329.867188 607.492188 329.007812 C 607.390625 321.652344 607.394531 314.289062 607.488281 306.933594 C 607.5 306.171875 608.097656 305.109375 608.742188 304.714844 C 614.9375 300.914062 621.132812 297.101562 627.484375 293.574219 C 630.148438 292.09375 631.21875 290.269531 631.183594 287.265625 C 631.0625 277.585938 631.1875 267.90625 631.101562 258.226562 C 631.082031 255.75 631.183594 253.578125 633.539062 252.011719 C 634.378906 251.453125 634.90625 250.246094 635.300781 249.230469 C 636.953125 244.953125 635.078125 240.253906 630.921875 238.015625 C 627.027344 235.917969 622.066406 237.164062 619.441406 240.902344 C 616.804688 244.660156 617.246094 249.613281 620.71875 252.613281 C 621.957031 253.683594 622.347656 254.738281 622.335938 256.289062 C 622.273438 263.886719 621.886719 271.519531 622.449219 279.074219 C 622.84375 284.460938 621.25 287.699219 616.289062 289.769531 C 613.269531 291.027344 610.574219 293.054688 607.636719 294.792969 C 607.636719 255.914062 607.636719 217.429688 607.636719 178.640625 C 610.320312 180.21875 612.6875 181.691406 615.132812 183.015625 C 616.683594 183.851562 617.585938 184.769531 617.914062 186.722656 C 618.8125 192.074219 623.660156 195.058594 628.988281 193.914062 C 633.480469 192.949219 636.664062 187.757812 635.574219 183.175781 C 634.328125 177.925781 629.511719 175.125 624.164062 176.382812 C 623.207031 176.609375 621.9375 176.464844 621.082031 176 C 617.363281 173.976562 613.84375 171.574219 610.054688 169.714844 C 607.894531 168.65625 607.332031 167.394531 607.378906 165.125 C 607.523438 157.527344 607.382812 149.925781 607.457031 142.324219 C 607.484375 139.636719 606.464844 137.847656 604.09375 136.507812 C 594.984375 131.359375 585.929688 126.117188 576.910156 120.820312 C 576.167969 120.386719 575.800781 119.296875 575.296875 118.488281 C 574.101562 116.5625 573.292969 114.21875 571.675781 112.773438 C 568.585938 110.015625 563.585938 110.429688 560.425781 113.167969 C 557.238281 115.929688 556.375 120.570312 558.355469 124.300781 C 560.335938 128.03125 564.597656 129.867188 568.753906 128.6875 C 570.148438 128.289062 571.328125 127.914062 572.804688 128.808594 C 578.953125 132.53125 585.203125 136.082031 591.410156 139.707031 C 593.683594 141.035156 596.847656 141.886719 597.960938 143.878906 C 599.128906 145.96875 598.351562 149.160156 598.375 151.871094 C 598.40625 155.417969 598.382812 158.960938 598.382812 162.671875 C 597.808594 162.441406 597.582031 162.378906 597.382812 162.265625 C 581.25 152.996094 565.117188 143.726562 548.992188 134.441406 C 535.359375 126.589844 521.71875 118.753906 508.132812 110.820312 C 505.871094 109.5 503.929688 109.390625 501.660156 110.722656 C 492.433594 116.136719 483.140625 121.449219 473.890625 126.824219 C 472.027344 127.90625 470.386719 128.679688 467.953125 127.960938 C 462.792969 126.429688 457.96875 129.632812 456.898438 134.777344 C 455.886719 139.652344 459.066406 144.527344 463.84375 145.4375 C 469.171875 146.453125 473.65625 143.304688 474.714844 137.898438 C 474.851562 137.214844 475.308594 136.367188 475.875 136.035156 C 485.035156 130.660156 494.21875 125.324219 503.464844 120.097656 C 504.21875 119.671875 505.667969 119.769531 506.453125 120.222656 C 518.515625 127.125 530.503906 134.144531 542.539062 141.097656 C 560.515625 151.488281 578.507812 161.847656 596.511719 172.191406 C 597.695312 172.875 598.425781 173.503906 598.425781 175.089844 C 598.371094 216.289062 598.390625 257.488281 598.320312 298.6875 C 598.320312 299.566406 597.617188 300.820312 596.867188 301.273438 C 581.878906 310.28125 566.820312 319.179688 551.796875 328.136719 C 533.273438 339.175781 514.761719 350.242188 496.261719 361.324219 C 494.960938 362.101562 493.945312 362.378906 492.351562 361.679688 C 487.65625 359.621094 482.527344 362.058594 480.664062 366.9375 C 478.867188 371.648438 481.367188 377.015625 486.113281 378.632812 C 490.867188 380.253906 496.304688 377.714844 497.632812 372.886719 C 498.191406 370.851562 499.367188 369.867188 500.96875 368.917969 C 511.824219 362.484375 522.660156 356.023438 533.8125 349.40625 M 516.558594 331.164062 C 518.4375 329.945312 520.082031 329.242188 522.660156 330.085938 C 527.527344 331.679688 532.574219 328.230469 533.542969 323.347656 C 534.542969 318.3125 531.328125 313.378906 526.476562 312.503906 C 521.445312 311.601562 516.742188 314.867188 515.726562 319.777344 C 515.535156 320.695312 514.746094 321.757812 513.929688 322.242188 C 505.882812 326.984375 497.789062 331.65625 489.640625 336.230469 C 488.878906 336.660156 487.460938 336.652344 486.6875 336.226562 C 480.53125 332.84375 474.441406 329.332031 468.359375 325.8125 C 446.441406 313.144531 424.546875 300.441406 402.609375 287.808594 C 401.167969 286.980469 400.675781 286.0625 400.679688 284.414062 C 400.722656 240.65625 400.726562 196.902344 400.675781 153.144531 C 400.671875 151.460938 401.234375 150.59375 402.65625 149.800781 C 411.65625 144.789062 420.613281 139.703125 429.570312 134.617188 C 451.933594 121.929688 474.285156 109.210938 496.679688 96.574219 C 497.628906 96.039062 499.09375 95.816406 500.121094 96.121094 C 505.160156 97.613281 510.304688 95.054688 511.785156 90.105469 C 513.238281 85.246094 510.160156 79.839844 505.296875 78.699219 C 500.125 77.492188 495.265625 80.714844 494.136719 85.917969 C 493.921875 86.910156 493.113281 88.050781 492.246094 88.574219 C 487.875 91.21875 483.390625 93.675781 478.945312 96.199219 C 455.890625 109.289062 432.835938 122.378906 409.777344 135.460938 C 406.894531 137.097656 403.984375 138.679688 400.714844 140.492188 C 400.714844 136.777344 400.761719 133.527344 400.691406 130.277344 C 400.664062 128.847656 400.96875 127.828125 402.160156 126.796875 C 406.191406 123.296875 406.289062 117.308594 402.5625 113.578125 C 399.003906 110.019531 393.164062 110.101562 389.675781 113.765625 C 386.035156 117.582031 386.390625 123.410156 390.351562 127.042969 C 391.058594 127.691406 391.65625 128.847656 391.683594 129.785156 C 391.816406 134.421875 391.6875 139.0625 391.777344 143.699219 C 391.808594 145.183594 391.285156 145.980469 390 146.691406 C 383.851562 150.089844 377.792969 153.65625 371.628906 157.027344 C 369.230469 158.335938 368.265625 160.09375 368.289062 162.820312 C 368.390625 173.136719 368.367188 183.457031 368.273438 193.777344 C 368.265625 194.804688 367.734375 196.105469 366.996094 196.804688 C 363.085938 200.507812 362.605469 206.207031 366.066406 209.90625 C 369.703125 213.785156 375.914062 213.792969 379.546875 209.917969 C 383.023438 206.214844 382.546875 200.484375 378.621094 196.816406 C 377.878906 196.121094 377.289062 194.855469 377.273438 193.84375 C 377.167969 185.527344 377.402344 177.199219 377.125 168.890625 C 377.007812 165.421875 377.929688 163.34375 381.171875 161.898438 C 384.691406 160.328125 387.96875 158.214844 391.605469 156.199219 C 391.605469 198.078125 391.605469 239.542969 391.605469 281.355469 C 388.816406 279.753906 386.21875 278.386719 383.769531 276.792969 C 382.894531 276.222656 382.011719 275.207031 381.746094 274.226562 C 380.273438 268.800781 375.421875 265.828125 370.207031 267.34375 C 365.34375 268.757812 362.632812 273.890625 364.191406 278.738281 C 365.839844 283.867188 371.058594 286.25 376.390625 284.398438 C 377.089844 284.15625 378.117188 284.179688 378.75 284.523438 C 382.539062 286.574219 386.234375 288.808594 390.019531 290.871094 C 391.308594 291.570312 391.792969 292.414062 391.777344 293.886719 C 391.707031 301.167969 391.816406 308.449219 391.710938 315.726562 C 391.664062 318.679688 392.671875 320.632812 395.339844 322.117188 C 404.058594 326.976562 412.652344 332.054688 421.328125 337 C 422.773438 337.820312 423.679688 338.734375 424.09375 340.496094 C 424.476562 342.117188 425.4375 343.789062 426.601562 344.996094 C 429.671875 348.1875 434.65625 348.363281 438.207031 345.6875 C 441.765625 343.011719 442.910156 338.394531 440.96875 334.558594 C 438.890625 330.445312 434.460938 328.554688 430.066406 329.75 C 429.035156 330.03125 427.636719 330.207031 426.796875 329.734375 C 418.570312 325.140625 410.421875 320.410156 402.277344 315.671875 C 401.65625 315.3125 400.804688 314.613281 400.796875 314.058594 C 400.683594 308.582031 400.726562 303.105469 400.726562 297.230469 C 401.871094 297.839844 402.632812 298.21875 403.367188 298.640625 C 420.390625 308.445312 437.417969 318.246094 454.433594 328.0625 C 464.601562 333.929688 474.765625 339.800781 484.90625 345.714844 C 486.753906 346.789062 488.550781 347.351562 490.535156 346.199219 C 499.105469 341.242188 507.675781 336.28125 516.558594 331.164062 M 440.964844 475.441406 C 440.964844 470.882812 440.941406 466.320312 440.972656 461.761719 C 440.996094 458.332031 439.90625 454.15625 441.46875 451.671875 C 443.222656 448.886719 447.347656 447.519531 450.546875 445.730469 C 454.519531 443.507812 458.808594 442.332031 463.410156 442.601562 C 468.558594 442.902344 471.371094 445.308594 472.269531 450.332031 C 472.546875 451.890625 472.617188 453.507812 472.617188 455.097656 C 472.640625 471.894531 472.632812 488.691406 472.632812 505.488281 C 472.632812 506.34375 472.632812 507.199219 472.632812 508.15625 C 478.996094 508.15625 485.105469 508.15625 491.46875 508.15625 C 491.46875 507.089844 491.46875 506.152344 491.46875 505.214844 C 491.46875 488.175781 491.488281 471.140625 491.433594 454.105469 C 491.425781 452.480469 491.839844 451.449219 493.3125 450.660156 C 495.417969 449.527344 497.394531 448.148438 499.457031 446.933594 C 504.066406 444.214844 508.882812 442.214844 514.398438 442.597656 C 519.519531 442.953125 522.148438 445.195312 523.035156 450.242188 C 523.347656 452.042969 523.472656 453.894531 523.476562 455.726562 C 523.507812 472.28125 523.496094 488.835938 523.496094 505.394531 C 523.496094 506.3125 523.496094 507.234375 523.496094 508.101562 C 530.203125 508.101562 536.550781 508.101562 543.074219 508.101562 C 543.074219 506.964844 543.074219 506.015625 543.074219 505.070312 C 543.074219 486.511719 543.085938 467.957031 543.058594 449.402344 C 543.054688 447.328125 542.933594 445.242188 542.699219 443.183594 C 541.667969 434.164062 536.054688 427.964844 527.132812 426.429688 C 520.40625 425.273438 513.59375 425.5625 507.414062 428.613281 C 501.519531 431.523438 496.003906 435.195312 490.324219 438.53125 C 488.070312 431.746094 482.890625 427.433594 475.289062 426.316406 C 466.453125 425.023438 458.058594 426.628906 450.4375 431.351562 C 446.394531 433.855469 442.597656 436.757812 438.496094 439.617188 C 437.980469 435.796875 437.464844 431.960938 436.929688 427.988281 C 431.695312 427.988281 426.546875 427.988281 421.273438 427.988281 C 421.273438 454.78125 421.273438 481.457031 421.273438 508.148438 C 427.859375 508.148438 434.300781 508.148438 440.964844 508.148438 C 440.964844 497.316406 440.964844 486.617188 440.964844 475.441406 M 226.734375 492.453125 C 225.214844 492.449219 223.695312 492.46875 222.175781 492.441406 C 210.519531 492.214844 204.277344 487.429688 201.441406 476.082031 C 198.679688 465.023438 198.785156 453.71875 199.441406 442.453125 C 199.742188 437.292969 200.375 432.074219 201.582031 427.058594 C 204.042969 416.789062 209.515625 412.214844 220 411.3125 C 224.363281 410.9375 228.785156 411.054688 233.171875 411.175781 C 240.195312 411.375 247.210938 411.761719 254.515625 412.082031 C 255.121094 407.109375 255.726562 402.152344 256.339844 397.121094 C 255.570312 396.871094 254.988281 396.632812 254.382812 396.488281 C 240.394531 393.171875 226.222656 392.378906 212 394.1875 C 194.660156 396.390625 184.359375 405.699219 180.527344 422.746094 C 179.011719 429.488281 178.277344 436.46875 177.847656 443.382812 C 177.039062 456.425781 177.523438 469.457031 180.824219 482.199219 C 184.742188 497.304688 194.191406 506.441406 209.859375 508.980469 C 219.90625 510.609375 229.949219 510.414062 239.980469 509.429688 C 246.21875 508.820312 252.386719 507.503906 258.742188 506.480469 C 258.058594 500.921875 257.460938 496.035156 256.886719 491.355469 C 246.828125 491.726562 237.019531 492.089844 226.734375 492.453125 M 802.199219 453.515625 C 802.199219 455.246094 802.199219 456.972656 802.199219 458.863281 C 794.273438 458.863281 786.691406 458.808594 779.105469 458.882812 C 774.316406 458.929688 769.496094 458.863281 764.75 459.382812 C 755.527344 460.398438 748.777344 467.023438 747.863281 476.226562 C 747.367188 481.203125 747.460938 486.324219 748.019531 491.296875 C 749.011719 500.15625 754.308594 505.925781 762.738281 508.3125 C 774.386719 511.609375 785.386719 509.738281 795.328125 502.695312 C 798.398438 500.523438 801.226562 498 804.261719 495.558594 C 804.964844 499.761719 805.660156 503.914062 806.359375 508.097656 C 811.648438 508.097656 816.785156 508.097656 821.921875 508.097656 C 821.921875 488.398438 822.066406 468.890625 821.832031 449.382812 C 821.765625 443.691406 820.292969 438.144531 816.230469 433.6875 C 811.546875 428.550781 805.386719 426.773438 798.816406 426.261719 C 786.804688 425.328125 774.863281 426.53125 762.945312 427.886719 C 759.183594 428.316406 755.457031 429.035156 751.621094 429.632812 C 752.265625 434.375 752.855469 438.699219 753.4375 442.980469 C 753.925781 443.042969 754.15625 443.113281 754.386719 443.097656 C 761.648438 442.6875 768.902344 442.101562 776.171875 441.894531 C 782.144531 441.726562 788.152344 441.71875 794.105469 442.167969 C 798.644531 442.515625 801.019531 445.261719 801.804688 449.746094 C 801.996094 450.84375 802.066406 451.964844 802.199219 453.515625 M 286.464844 430.773438 C 279.300781 434.6875 275.425781 441.035156 273.550781 448.695312 C 270.5 461.164062 270.507812 473.742188 273.214844 486.25 C 275.777344 498.09375 282.824219 505.871094 294.871094 508.589844 C 304.820312 510.835938 314.84375 510.8125 324.882812 509.175781 C 337.957031 507.039062 346.238281 499.640625 349.128906 486.628906 C 351.839844 474.445312 351.796875 462.1875 349.230469 449.984375 C 346.492188 436.960938 338.445312 429.15625 325.300781 427.214844 C 319.097656 426.296875 312.742188 426.1875 306.453125 426.132812 C 299.597656 426.078125 292.960938 427.476562 286.464844 430.773438 M 594.144531 426.171875 C 591.453125 426.523438 588.734375 426.722656 586.078125 427.25 C 573.945312 429.652344 566.066406 436.589844 563.265625 448.890625 C 560.507812 461.003906 560.394531 473.144531 562.984375 485.269531 C 564.449219 492.132812 567.394531 498.242188 573.121094 502.722656 C 578.136719 506.644531 583.933594 508.394531 590.097656 509.316406 C 600.65625 510.902344 611.160156 510.121094 621.605469 508.464844 C 626.203125 507.734375 630.703125 506.410156 635.324219 505.339844 C 634.574219 500.65625 633.925781 496.59375 633.246094 492.359375 C 631.699219 492.492188 630.363281 492.65625 629.019531 492.710938 C 619.285156 493.128906 609.550781 493.773438 599.816406 493.8125 C 595.042969 493.835938 590.191406 492.847656 586.8125 488.789062 C 583.566406 484.890625 582.65625 480.191406 582.230469 475.117188 C 583.898438 475.117188 585.328125 475.128906 586.757812 475.113281 C 597.785156 474.992188 608.824219 475.175781 619.832031 474.648438 C 629.449219 474.191406 635.402344 468.285156 636.792969 458.800781 C 637.148438 456.363281 637.257812 453.859375 637.191406 451.394531 C 636.867188 439.550781 630.464844 431.371094 619.074219 428.089844 C 611.042969 425.777344 602.832031 425.71875 594.144531 426.171875 M 730.214844 482.640625 C 730.214844 476.882812 730.257812 471.125 730.203125 465.367188 C 730.132812 458.015625 730.300781 450.640625 729.792969 443.316406 C 729.15625 434.195312 723.859375 428.40625 714.96875 426.628906 C 705.703125 424.78125 696.785156 426.335938 688.445312 430.550781 C 683.066406 433.269531 677.992188 436.59375 672.660156 439.71875 C 672.191406 435.984375 671.691406 431.996094 671.191406 428.042969 C 665.730469 428.042969 660.433594 428.042969 655.148438 428.042969 C 655.148438 454.855469 655.148438 481.453125 655.148438 508.132812 C 661.707031 508.132812 668.128906 508.132812 674.738281 508.132812 C 674.738281 507.035156 674.738281 506.085938 674.738281 505.140625 C 674.738281 488.109375 674.753906 471.074219 674.710938 454.042969 C 674.707031 452.632812 674.921875 451.660156 676.335938 451.003906 C 680.386719 449.121094 684.335938 447.019531 688.414062 445.191406 C 692.613281 443.308594 697.058594 442.375 701.695312 442.597656 C 706.972656 442.851562 709.617188 445.292969 710.183594 450.492188 C 710.375 452.238281 710.460938 454.003906 710.460938 455.757812 C 710.484375 472.308594 710.472656 488.863281 710.480469 505.417969 C 710.480469 506.335938 710.558594 507.257812 710.597656 508.144531 C 717.230469 508.144531 723.59375 508.144531 730.214844 508.144531 C 730.214844 499.710938 730.214844 491.414062 730.214844 482.640625 M 369.734375 458.640625 C 369.789062 469.675781 369.621094 480.722656 369.96875 491.75 C 370.246094 500.46875 375.746094 506.71875 384.132812 508.882812 C 389.996094 510.394531 395.878906 509.863281 401.746094 508.992188 C 404.140625 508.636719 406.492188 508.003906 408.941406 507.480469 C 408.1875 502.84375 407.566406 498.664062 406.757812 494.515625 C 406.65625 494.011719 405.574219 493.410156 404.90625 493.351562 C 402.125 493.121094 399.296875 493.292969 396.539062 492.925781 C 392.289062 492.363281 389.933594 489.667969 389.546875 485.378906 C 389.449219 484.265625 389.445312 483.140625 389.445312 482.023438 C 389.496094 453.542969 389.550781 425.066406 389.601562 396.589844 C 389.605469 395.660156 389.601562 394.734375 389.601562 393.761719 C 382.859375 393.761719 376.421875 393.761719 369.734375 393.761719 C 369.734375 415.3125 369.734375 436.738281 369.734375 458.640625 Z M 369.734375 458.640625 "/>
<path style=" stroke:none;fill-rule:nonzero;fill:rgb(64.313728%,86.274511%,96.078432%);fill-opacity:1;" d="M 525.835938 285.023438 C 519.117188 288.902344 512.542969 292.695312 506 296.535156 C 500.6875 299.652344 495.53125 299.582031 490.160156 296.445312 C 473.882812 286.945312 457.527344 277.578125 441.183594 268.1875 C 435.949219 265.179688 433.269531 260.84375 433.296875 254.6875 C 433.382812 235.574219 433.351562 216.460938 433.316406 197.347656 C 433.304688 191.640625 435.613281 187.367188 440.578125 184.496094 C 457.515625 174.703125 474.417969 164.84375 491.390625 155.101562 C 495.890625 152.519531 500.632812 152.652344 505.121094 155.21875 C 516.839844 161.914062 528.496094 168.722656 540.175781 175.484375 C 545.222656 178.402344 550.253906 181.351562 555.320312 184.230469 C 560.53125 187.191406 563.023438 191.621094 563.011719 197.613281 C 562.96875 216.644531 562.957031 235.679688 563.019531 254.714844 C 563.035156 260.4375 560.707031 264.863281 555.890625 267.71875 C 545.996094 273.582031 535.96875 279.21875 525.835938 285.023438 Z M 525.835938 285.023438 "/>
<path style=" stroke:none;fill-rule:nonzero;fill:rgb(97.254902%,67.450982%,23.529412%);fill-opacity:1;" d="M 533.660156 349.488281 C 522.660156 356.023438 511.824219 362.484375 500.96875 368.917969 C 499.367188 369.867188 498.191406 370.851562 497.632812 372.886719 C 496.304688 377.714844 490.867188 380.253906 486.113281 378.632812 C 481.367188 377.015625 478.867188 371.648438 480.664062 366.9375 C 482.527344 362.058594 487.65625 359.621094 492.351562 361.679688 C 493.945312 362.378906 494.960938 362.101562 496.261719 361.324219 C 514.761719 350.242188 533.273438 339.175781 551.796875 328.136719 C 566.820312 319.179688 581.878906 310.28125 596.867188 301.273438 C 597.617188 300.820312 598.320312 299.566406 598.320312 298.6875 C 598.390625 257.488281 598.371094 216.289062 598.425781 175.089844 C 598.425781 173.503906 597.695312 172.875 596.511719 172.191406 C 578.507812 161.847656 560.515625 151.488281 542.539062 141.097656 C 530.503906 134.144531 518.515625 127.125 506.453125 120.222656 C 505.667969 119.769531 504.21875 119.671875 503.464844 120.097656 C 494.21875 125.324219 485.035156 130.660156 475.875 136.035156 C 475.308594 136.367188 474.851562 137.214844 474.714844 137.898438 C 473.65625 143.304688 469.171875 146.453125 463.84375 145.4375 C 459.066406 144.527344 455.886719 139.652344 456.898438 134.777344 C 457.96875 129.632812 462.792969 126.429688 467.953125 127.960938 C 470.386719 128.679688 472.027344 127.90625 473.890625 126.824219 C 483.140625 121.449219 492.433594 116.136719 501.660156 110.722656 C 503.929688 109.390625 505.871094 109.5 508.132812 110.820312 C 521.71875 118.753906 535.359375 126.589844 548.992188 134.441406 C 565.117188 143.726562 581.25 152.996094 597.382812 162.265625 C 597.582031 162.378906 597.808594 162.441406 598.382812 162.671875 C 598.382812 158.960938 598.40625 155.417969 598.375 151.871094 C 598.351562 149.160156 599.128906 145.96875 597.960938 143.878906 C 596.847656 141.886719 593.683594 141.035156 591.410156 139.707031 C 585.203125 136.082031 578.953125 132.53125 572.804688 128.808594 C 571.328125 127.914062 570.148438 128.289062 568.753906 128.6875 C 564.597656 129.867188 560.335938 128.03125 558.355469 124.300781 C 556.375 120.570312 557.238281 115.929688 560.425781 113.167969 C 563.585938 110.429688 568.585938 110.015625 571.675781 112.773438 C 573.292969 114.21875 574.101562 116.5625 575.296875 118.488281 C 575.800781 119.296875 576.167969 120.386719 576.910156 120.820312 C 585.929688 126.117188 594.984375 131.359375 604.09375 136.507812 C 606.464844 137.847656 607.484375 139.636719 607.457031 142.324219 C 607.382812 149.925781 607.523438 157.527344 607.378906 165.125 C 607.332031 167.394531 607.894531 168.65625 610.054688 169.714844 C 613.84375 171.574219 617.363281 173.976562 621.082031 176 C 621.9375 176.464844 623.207031 176.609375 624.164062 176.382812 C 629.511719 175.125 634.328125 177.925781 635.574219 183.175781 C 636.664062 187.757812 633.480469 192.949219 628.988281 193.914062 C 623.660156 195.058594 618.8125 192.074219 617.914062 186.722656 C 617.585938 184.769531 616.683594 183.851562 615.132812 183.015625 C 612.6875 181.691406 610.320312 180.21875 607.636719 178.640625 C 607.636719 217.429688 607.636719 255.914062 607.636719 294.792969 C 610.574219 293.054688 613.269531 291.027344 616.289062 289.769531 C 621.25 287.699219 622.84375 284.460938 622.449219 279.074219 C 621.886719 271.519531 622.273438 263.886719 622.335938 256.289062 C 622.347656 254.738281 621.957031 253.683594 620.71875 252.613281 C 617.246094 249.613281 616.804688 244.660156 619.441406 240.902344 C 622.066406 237.164062 627.027344 235.917969 630.921875 238.015625 C 635.078125 240.253906 636.953125 244.953125 635.300781 249.230469 C 634.90625 250.246094 634.378906 251.453125 633.539062 252.011719 C 631.183594 253.578125 631.082031 255.75 631.101562 258.226562 C 631.1875 267.90625 631.0625 277.585938 631.183594 287.265625 C 631.21875 290.269531 630.148438 292.09375 627.484375 293.574219 C 621.132812 297.101562 614.9375 300.914062 608.742188 304.714844 C 608.097656 305.109375 607.5 306.171875 607.488281 306.933594 C 607.394531 314.289062 607.390625 321.652344 607.492188 329.007812 C 607.503906 329.867188 608.121094 330.917969 608.785156 331.523438 C 611.679688 334.179688 612.695312 337.410156 611.605469 341.085938 C 610.539062 344.679688 607.890625 346.878906 604.1875 347.429688 C 600.328125 348.003906 597.328125 346.34375 595.21875 343.125 C 592.949219 339.664062 593.535156 334.875 596.777344 331.988281 C 598.066406 330.84375 598.441406 329.703125 598.414062 328.078125 C 598.328125 322.492188 598.382812 316.902344 598.382812 310.851562 C 576.660156 323.820312 555.238281 336.613281 533.660156 349.488281 Z M 533.660156 349.488281 "/>
<path style=" stroke:none;fill-rule:nonzero;fill:rgb(97.254902%,67.450982%,23.921569%);fill-opacity:1;" d="M 516.402344 331.242188 C 507.675781 336.28125 499.105469 341.242188 490.535156 346.199219 C 488.550781 347.351562 486.753906 346.789062 484.90625 345.714844 C 474.765625 339.800781 464.601562 333.929688 454.433594 328.0625 C 437.417969 318.246094 420.390625 308.445312 403.367188 298.640625 C 402.632812 298.21875 401.871094 297.839844 400.726562 297.230469 C 400.726562 303.105469 400.683594 308.582031 400.796875 314.058594 C 400.804688 314.613281 401.65625 315.3125 402.277344 315.671875 C 410.421875 320.410156 418.570312 325.140625 426.796875 329.734375 C 427.636719 330.207031 429.035156 330.03125 430.066406 329.75 C 434.460938 328.554688 438.890625 330.445312 440.96875 334.558594 C 442.910156 338.394531 441.765625 343.011719 438.207031 345.6875 C 434.65625 348.363281 429.671875 348.1875 426.601562 344.996094 C 425.4375 343.789062 424.476562 342.117188 424.09375 340.496094 C 423.679688 338.734375 422.773438 337.820312 421.328125 337 C 412.652344 332.054688 404.058594 326.976562 395.339844 322.117188 C 392.671875 320.632812 391.664062 318.679688 391.710938 315.726562 C 391.816406 308.449219 391.707031 301.167969 391.777344 293.886719 C 391.792969 292.414062 391.308594 291.570312 390.019531 290.871094 C 386.234375 288.808594 382.539062 286.574219 378.75 284.523438 C 378.117188 284.179688 377.089844 284.15625 376.390625 284.398438 C 371.058594 286.25 365.839844 283.867188 364.191406 278.738281 C 362.632812 273.890625 365.34375 268.757812 370.207031 267.34375 C 375.421875 265.828125 380.273438 268.800781 381.746094 274.226562 C 382.011719 275.207031 382.894531 276.222656 383.769531 276.792969 C 386.21875 278.386719 388.816406 279.753906 391.605469 281.355469 C 391.605469 239.542969 391.605469 198.078125 391.605469 156.199219 C 387.96875 158.214844 384.691406 160.328125 381.171875 161.898438 C 377.929688 163.34375 377.007812 165.421875 377.125 168.890625 C 377.402344 177.199219 377.167969 185.527344 377.273438 193.84375 C 377.289062 194.855469 377.878906 196.121094 378.621094 196.816406 C 382.546875 200.484375 383.023438 206.214844 379.546875 209.917969 C 375.914062 213.792969 369.703125 213.785156 366.066406 209.90625 C 362.605469 206.207031 363.085938 200.507812 366.996094 196.804688 C 367.734375 196.105469 368.265625 194.804688 368.273438 193.777344 C 368.367188 183.457031 368.390625 173.136719 368.289062 162.820312 C 368.265625 160.09375 369.230469 158.335938 371.628906 157.027344 C 377.792969 153.65625 383.851562 150.089844 390 146.691406 C 391.285156 145.980469 391.808594 145.183594 391.777344 143.699219 C 391.6875 139.0625 391.816406 134.421875 391.683594 129.785156 C 391.65625 128.847656 391.058594 127.691406 390.351562 127.042969 C 386.390625 123.410156 386.035156 117.582031 389.675781 113.765625 C 393.164062 110.101562 399.003906 110.019531 402.5625 113.578125 C 406.289062 117.308594 406.191406 123.296875 402.160156 126.796875 C 400.96875 127.828125 400.664062 128.847656 400.691406 130.277344 C 400.761719 133.527344 400.714844 136.777344 400.714844 140.492188 C 403.984375 138.679688 406.894531 137.097656 409.777344 135.460938 C 432.835938 122.378906 455.890625 109.289062 478.945312 96.199219 C 483.390625 93.675781 487.875 91.21875 492.246094 88.574219 C 493.113281 88.050781 493.921875 86.910156 494.136719 85.917969 C 495.265625 80.714844 500.125 77.492188 505.296875 78.699219 C 510.160156 79.839844 513.238281 85.246094 511.785156 90.105469 C 510.304688 95.054688 505.160156 97.613281 500.121094 96.121094 C 499.09375 95.816406 497.628906 96.039062 496.679688 96.574219 C 474.285156 109.210938 451.933594 121.929688 429.570312 134.617188 C 420.613281 139.703125 411.65625 144.789062 402.65625 149.800781 C 401.234375 150.59375 400.671875 151.460938 400.675781 153.144531 C 400.726562 196.902344 400.722656 240.65625 400.679688 284.414062 C 400.675781 286.0625 401.167969 286.980469 402.609375 287.808594 C 424.546875 300.441406 446.441406 313.144531 468.359375 325.8125 C 474.441406 329.332031 480.53125 332.84375 486.6875 336.226562 C 487.460938 336.652344 488.878906 336.660156 489.640625 336.230469 C 497.789062 331.65625 505.882812 326.984375 513.929688 322.242188 C 514.746094 321.757812 515.535156 320.695312 515.726562 319.777344 C 516.742188 314.867188 521.445312 311.601562 526.476562 312.503906 C 531.328125 313.378906 534.542969 318.3125 533.542969 323.347656 C 532.574219 328.230469 527.527344 331.679688 522.660156 330.085938 C 520.082031 329.242188 518.4375 329.945312 516.402344 331.242188 Z M 516.402344 331.242188 "/>
<path style=" stroke:none;fill-rule:nonzero;fill:rgb(98.039216%,67.843139%,23.529412%);fill-opacity:1;" d="M 440.964844 475.679688 C 440.964844 486.617188 440.964844 497.316406 440.964844 508.148438 C 434.300781 508.148438 427.859375 508.148438 421.273438 508.148438 C 421.273438 481.457031 421.273438 454.78125 421.273438 427.988281 C 426.546875 427.988281 431.695312 427.988281 436.929688 427.988281 C 437.464844 431.960938 437.980469 435.796875 438.496094 439.617188 C 442.597656 436.757812 446.394531 433.855469 450.4375 431.351562 C 458.058594 426.628906 466.453125 425.023438 475.289062 426.316406 C 482.890625 427.433594 488.070312 431.746094 490.324219 438.53125 C 496.003906 435.195312 501.519531 431.523438 507.414062 428.613281 C 513.59375 425.5625 520.40625 425.273438 527.132812 426.429688 C 536.054688 427.964844 541.667969 434.164062 542.699219 443.183594 C 542.933594 445.242188 543.054688 447.328125 543.058594 449.402344 C 543.085938 467.957031 543.074219 486.511719 543.074219 505.070312 C 543.074219 506.015625 543.074219 506.964844 543.074219 508.101562 C 536.550781 508.101562 530.203125 508.101562 523.496094 508.101562 C 523.496094 507.234375 523.496094 506.3125 523.496094 505.394531 C 523.496094 488.835938 523.507812 472.28125 523.476562 455.726562 C 523.472656 453.894531 523.347656 452.042969 523.035156 450.242188 C 522.148438 445.195312 519.519531 442.953125 514.398438 442.597656 C 508.882812 442.214844 504.066406 444.214844 499.457031 446.933594 C 497.394531 448.148438 495.417969 449.527344 493.3125 450.660156 C 491.839844 451.449219 491.425781 452.480469 491.433594 454.105469 C 491.488281 471.140625 491.46875 488.175781 491.46875 505.214844 C 491.46875 506.152344 491.46875 507.089844 491.46875 508.15625 C 485.105469 508.15625 478.996094 508.15625 472.632812 508.15625 C 472.632812 507.199219 472.632812 506.34375 472.632812 505.488281 C 472.632812 488.691406 472.640625 471.894531 472.617188 455.097656 C 472.617188 453.507812 472.546875 451.890625 472.269531 450.332031 C 471.371094 445.308594 468.558594 442.902344 463.410156 442.601562 C 458.808594 442.332031 454.519531 443.507812 450.546875 445.730469 C 447.347656 447.519531 443.222656 448.886719 441.46875 451.671875 C 439.90625 454.15625 440.996094 458.332031 440.972656 461.761719 C 440.941406 466.320312 440.964844 470.882812 440.964844 475.679688 Z M 440.964844 475.679688 "/>
<path style=" stroke:none;fill-rule:nonzero;fill:rgb(98.039216%,67.843139%,23.529412%);fill-opacity:1;" d="M 226.972656 492.453125 C 237.019531 492.089844 246.828125 491.726562 256.886719 491.355469 C 257.460938 496.035156 258.058594 500.921875 258.742188 506.480469 C 252.386719 507.503906 246.21875 508.820312 239.980469 509.429688 C 229.949219 510.414062 219.90625 510.609375 209.859375 508.980469 C 194.191406 506.441406 184.742188 497.304688 180.824219 482.199219 C 177.523438 469.457031 177.039062 456.425781 177.847656 443.382812 C 178.277344 436.46875 179.011719 429.488281 180.527344 422.746094 C 184.359375 405.699219 194.660156 396.390625 212 394.1875 C 226.222656 392.378906 240.394531 393.171875 254.382812 396.488281 C 254.988281 396.632812 255.570312 396.871094 256.339844 397.121094 C 255.726562 402.152344 255.121094 407.109375 254.515625 412.082031 C 247.210938 411.761719 240.195312 411.375 233.171875 411.175781 C 228.785156 411.054688 224.363281 410.9375 220 411.3125 C 209.515625 412.214844 204.042969 416.789062 201.582031 427.058594 C 200.375 432.074219 199.742188 437.292969 199.441406 442.453125 C 198.785156 453.71875 198.679688 465.023438 201.441406 476.082031 C 204.277344 487.429688 210.519531 492.214844 222.175781 492.441406 C 223.695312 492.46875 225.214844 492.449219 226.972656 492.453125 Z M 226.972656 492.453125 "/>
<path style=" stroke:none;fill-rule:nonzero;fill:rgb(98.039216%,67.843139%,23.529412%);fill-opacity:1;" d="M 802.195312 453.296875 C 802.066406 451.964844 801.996094 450.84375 801.804688 449.746094 C 801.019531 445.261719 798.644531 442.515625 794.105469 442.167969 C 788.152344 441.71875 782.144531 441.726562 776.171875 441.894531 C 768.902344 442.101562 761.648438 442.6875 754.386719 443.097656 C 754.15625 443.113281 753.925781 443.042969 753.4375 442.980469 C 752.855469 438.699219 752.265625 434.375 751.621094 429.632812 C 755.457031 429.035156 759.183594 428.316406 762.945312 427.886719 C 774.863281 426.53125 786.804688 425.328125 798.816406 426.261719 C 805.386719 426.773438 811.546875 428.550781 816.230469 433.6875 C 820.292969 438.144531 821.765625 443.691406 821.832031 449.382812 C 822.066406 468.890625 821.921875 488.398438 821.921875 508.097656 C 816.785156 508.097656 811.648438 508.097656 806.359375 508.097656 C 805.660156 503.914062 804.964844 499.761719 804.261719 495.558594 C 801.226562 498 798.398438 500.523438 795.328125 502.695312 C 785.386719 509.738281 774.386719 511.609375 762.738281 508.3125 C 754.308594 505.925781 749.011719 500.15625 748.019531 491.296875 C 747.460938 486.324219 747.367188 481.203125 747.863281 476.226562 C 748.777344 467.023438 755.527344 460.398438 764.75 459.382812 C 769.496094 458.863281 774.316406 458.929688 779.105469 458.882812 C 786.691406 458.808594 794.273438 458.863281 802.199219 458.863281 C 802.199219 456.972656 802.199219 455.246094 802.195312 453.296875 M 781.535156 494.488281 C 788.824219 493.464844 795.25 490.402344 801.128906 486.09375 C 801.59375 485.753906 802.136719 485.117188 802.148438 484.609375 C 802.226562 480.167969 802.191406 475.726562 802.191406 471.046875 C 798.4375 471.046875 795.015625 471.019531 791.59375 471.054688 C 786.003906 471.109375 780.402344 470.992188 774.828125 471.34375 C 770.449219 471.617188 768.125 474.222656 767.664062 478.632812 C 767.464844 480.53125 767.484375 482.460938 767.5 484.378906 C 767.570312 491.402344 770.730469 494.605469 777.773438 494.78125 C 778.882812 494.808594 780 494.628906 781.535156 494.488281 Z M 781.535156 494.488281 "/>
<path style=" stroke:none;fill-rule:nonzero;fill:rgb(97.647059%,67.843139%,23.529412%);fill-opacity:1;" d="M 286.617188 430.683594 C 292.960938 427.476562 299.597656 426.078125 306.453125 426.132812 C 312.742188 426.1875 319.097656 426.296875 325.300781 427.214844 C 338.445312 429.15625 346.492188 436.960938 349.230469 449.984375 C 351.796875 462.1875 351.839844 474.445312 349.128906 486.628906 C 346.238281 499.640625 337.957031 507.039062 324.882812 509.175781 C 314.84375 510.8125 304.820312 510.835938 294.871094 508.589844 C 282.824219 505.871094 275.777344 498.09375 273.214844 486.25 C 270.507812 473.742188 270.5 461.164062 273.550781 448.695312 C 275.425781 441.035156 279.300781 434.6875 286.617188 430.683594 M 320.742188 442.480469 C 316.351562 440.921875 311.796875 440.785156 307.25 441.234375 C 299.085938 442.042969 295.171875 445.285156 293.464844 453.160156 C 291.328125 463.03125 291.46875 473.003906 293.375 482.90625 C 294.363281 488.027344 296.71875 492.527344 302.234375 493.742188 C 306.304688 494.636719 310.601562 494.953125 314.777344 494.8125 C 323.300781 494.53125 327.59375 490.660156 329.179688 482.28125 C 330.875 473.328125 330.800781 464.304688 329.445312 455.332031 C 328.625 449.910156 326.882812 444.863281 320.742188 442.480469 Z M 320.742188 442.480469 "/>
<path style=" stroke:none;fill-rule:nonzero;fill:rgb(97.647059%,67.843139%,23.529412%);fill-opacity:1;" d="M 594.363281 426.160156 C 602.832031 425.71875 611.042969 425.777344 619.074219 428.089844 C 630.464844 431.371094 636.867188 439.550781 637.191406 451.394531 C 637.257812 453.859375 637.148438 456.363281 636.792969 458.800781 C 635.402344 468.285156 629.449219 474.191406 619.832031 474.648438 C 608.824219 475.175781 597.785156 474.992188 586.757812 475.113281 C 585.328125 475.128906 583.898438 475.117188 582.230469 475.117188 C 582.65625 480.191406 583.566406 484.890625 586.8125 488.789062 C 590.191406 492.847656 595.042969 493.835938 599.816406 493.8125 C 609.550781 493.773438 619.285156 493.128906 629.019531 492.710938 C 630.363281 492.65625 631.699219 492.492188 633.246094 492.359375 C 633.925781 496.59375 634.574219 500.65625 635.324219 505.339844 C 630.703125 506.410156 626.203125 507.734375 621.605469 508.464844 C 611.160156 510.121094 600.65625 510.902344 590.097656 509.316406 C 583.933594 508.394531 578.136719 506.644531 573.121094 502.722656 C 567.394531 498.242188 564.449219 492.132812 562.984375 485.269531 C 560.394531 473.144531 560.507812 461.003906 563.265625 448.890625 C 566.066406 436.589844 573.945312 429.652344 586.078125 427.25 C 588.734375 426.722656 591.453125 426.523438 594.363281 426.160156 M 613.796875 443.140625 C 606.457031 439.804688 598.941406 440.113281 591.355469 442.066406 C 588.667969 442.761719 586.632812 444.394531 585.226562 446.730469 C 582.289062 451.628906 582.070312 457.082031 581.867188 462.675781 C 591.648438 462.675781 601.136719 462.726562 610.621094 462.636719 C 612.90625 462.617188 614.96875 461.820312 616.222656 459.585938 C 618.894531 454.808594 617.929688 447.277344 613.796875 443.140625 Z M 613.796875 443.140625 "/>
<path style=" stroke:none;fill-rule:nonzero;fill:rgb(97.647059%,67.450982%,23.529412%);fill-opacity:1;" d="M 730.214844 482.878906 C 730.214844 491.414062 730.214844 499.710938 730.214844 508.144531 C 723.59375 508.144531 717.230469 508.144531 710.597656 508.144531 C 710.558594 507.257812 710.480469 506.335938 710.480469 505.417969 C 710.472656 488.863281 710.484375 472.308594 710.460938 455.757812 C 710.460938 454.003906 710.375 452.238281 710.183594 450.492188 C 709.617188 445.292969 706.972656 442.851562 701.695312 442.597656 C 697.058594 442.375 692.613281 443.308594 688.414062 445.191406 C 684.335938 447.019531 680.386719 449.121094 676.335938 451.003906 C 674.921875 451.660156 674.707031 452.632812 674.710938 454.042969 C 674.753906 471.074219 674.738281 488.109375 674.738281 505.140625 C 674.738281 506.085938 674.738281 507.035156 674.738281 508.132812 C 668.128906 508.132812 661.707031 508.132812 655.148438 508.132812 C 655.148438 481.453125 655.148438 454.855469 655.148438 428.042969 C 660.433594 428.042969 665.730469 428.042969 671.191406 428.042969 C 671.691406 431.996094 672.191406 435.984375 672.660156 439.71875 C 677.992188 436.59375 683.066406 433.269531 688.445312 430.550781 C 696.785156 426.335938 705.703125 424.78125 714.96875 426.628906 C 723.859375 428.40625 729.15625 434.195312 729.792969 443.316406 C 730.300781 450.640625 730.132812 458.015625 730.203125 465.367188 C 730.257812 471.125 730.214844 476.882812 730.214844 482.878906 Z M 730.214844 482.878906 "/>
<path style=" stroke:none;fill-rule:nonzero;fill:rgb(97.647059%,67.450982%,23.529412%);fill-opacity:1;" d="M 369.734375 458.398438 C 369.734375 436.738281 369.734375 415.3125 369.734375 393.761719 C 376.421875 393.761719 382.859375 393.761719 389.601562 393.761719 C 389.601562 394.734375 389.605469 395.660156 389.601562 396.589844 C 389.550781 425.066406 389.496094 453.542969 389.445312 482.023438 C 389.445312 483.140625 389.449219 484.265625 389.546875 485.378906 C 389.933594 489.667969 392.289062 492.363281 396.539062 492.925781 C 399.296875 493.292969 402.125 493.121094 404.90625 493.351562 C 405.574219 493.410156 406.65625 494.011719 406.757812 494.515625 C 407.566406 498.664062 408.1875 502.84375 408.941406 507.480469 C 406.492188 508.003906 404.140625 508.636719 401.746094 508.992188 C 395.878906 509.863281 389.996094 510.394531 384.132812 508.882812 C 375.746094 506.71875 370.246094 500.46875 369.96875 491.75 C 369.621094 480.722656 369.789062 469.675781 369.734375 458.398438 Z M 369.734375 458.398438 "/>
<path style=" stroke:none;fill-rule:nonzero;fill:rgb(8.627451%,27.843139%,51.764709%);fill-opacity:1;" d="M 781.324219 494.515625 C 780 494.628906 778.882812 494.808594 777.773438 494.78125 C 770.730469 494.605469 767.570312 491.402344 767.5 484.378906 C 767.484375 482.460938 767.464844 480.53125 767.664062 478.632812 C 768.125 474.222656 770.449219 471.617188 774.828125 471.34375 C 780.402344 470.992188 786.003906 471.109375 791.59375 471.054688 C 795.015625 471.019531 798.4375 471.046875 802.191406 471.046875 C 802.191406 475.726562 802.226562 480.167969 802.148438 484.609375 C 802.136719 485.117188 801.59375 485.753906 801.128906 486.09375 C 795.25 490.402344 788.824219 493.464844 781.324219 494.515625 Z M 781.324219 494.515625 "/>
<path style=" stroke:none;fill-rule:nonzero;fill:rgb(7.450981%,27.058825%,51.764709%);fill-opacity:1;" d="M 320.921875 442.527344 C 326.882812 444.863281 328.625 449.910156 329.445312 455.332031 C 330.800781 464.304688 330.875 473.328125 329.179688 482.28125 C 327.59375 490.660156 323.300781 494.53125 314.777344 494.8125 C 310.601562 494.953125 306.304688 494.636719 302.234375 493.742188 C 296.71875 492.527344 294.363281 488.027344 293.375 482.90625 C 291.46875 473.003906 291.328125 463.03125 293.464844 453.160156 C 295.171875 445.285156 299.085938 442.042969 307.25 441.234375 C 311.796875 440.785156 316.351562 440.921875 320.921875 442.527344 Z M 320.921875 442.527344 "/>
<path style=" stroke:none;fill-rule:nonzero;fill:rgb(7.843138%,27.058825%,51.764709%);fill-opacity:1;" d="M 613.933594 443.25 C 617.929688 447.277344 618.894531 454.808594 616.222656 459.585938 C 614.96875 461.820312 612.90625 462.617188 610.621094 462.636719 C 601.136719 462.726562 591.648438 462.675781 581.867188 462.675781 C 582.070312 457.082031 582.289062 451.628906 585.226562 446.730469 C 586.632812 444.394531 588.667969 442.761719 591.355469 442.066406 C 598.941406 440.113281 606.457031 439.804688 613.933594 443.25 Z M 613.933594 443.25 "/>
</g>
</svg>
