<svg version="1.1" id="Layer_1" xmlns="http://www.w3.org/2000/svg" xmlns:xlink="http://www.w3.org/1999/xlink" x="0px" y="0px"
	 width="100%" viewBox="0 0 706 706" enable-background="new 0 0 706 706" xml:space="preserve">
<path fill="none" opacity="1.000000" stroke="none" 
	d="
M412.000000,707.000000 
	C274.666656,707.000000 137.833328,707.000000 1.000000,707.000000 
	C1.000000,471.666656 1.000000,236.333328 1.000000,1.000000 
	C236.333328,1.000000 471.666656,1.000000 707.000000,1.000000 
	C707.000000,236.333328 707.000000,471.666656 707.000000,707.000000 
	C608.833313,707.000000 510.666656,707.000000 412.000000,707.000000 
M250.556122,254.017761 
	C245.240204,257.127075 239.936752,260.257874 234.605637,263.340942 
	C225.169281,268.798065 220.079086,276.958344 220.050720,287.851593 
	C219.947922,327.336670 219.942581,366.822296 220.051544,406.307312 
	C220.082153,417.398560 225.350235,425.585907 234.960037,431.137573 
	C267.672455,450.035645 300.430420,468.857574 332.988892,488.018005 
	C344.497131,494.790558 355.293213,494.926147 366.833679,488.145813 
	C399.121857,469.175446 431.558014,450.454926 464.042236,431.821350 
	C474.747467,425.680603 480.045410,416.796204 480.030701,404.506165 
	C479.984955,366.353729 479.966370,328.201141 480.042267,290.048798 
	C480.066681,277.789307 475.062012,268.808594 464.297089,262.627411 
	C431.962799,244.061172 399.682343,225.396988 367.571838,206.447433 
	C355.565948,199.362366 344.379456,199.394104 332.372772,206.526184 
	C305.471588,222.505707 278.271637,237.982285 250.556122,254.017761 
M520.967957,535.449524 
	C530.758972,529.626099 540.549988,523.802673 551.127075,517.511658 
	C551.127075,528.389587 550.954529,538.185364 551.196045,547.970825 
	C551.327393,553.293823 551.362549,558.249023 546.086670,561.467957 
	C545.194580,562.012329 544.702759,563.313354 544.177368,564.342041 
	C539.742676,573.024841 542.521912,583.425720 550.604126,588.518188 
	C558.086914,593.232971 568.580261,591.496033 574.117859,584.626160 
	C580.295715,576.961731 579.887939,566.509338 572.610962,559.831665 
	C569.836304,557.285400 569.007812,554.754333 569.054626,551.209900 
	C569.219727,538.713745 569.461914,526.200256 568.960632,513.722046 
	C568.740845,508.249725 570.665710,505.329529 575.211060,502.762756 
	C586.950012,496.133667 598.376587,488.953064 610.079407,482.257446 
	C614.985840,479.450348 617.026245,475.701355 616.977478,470.068878 
	C616.798706,449.406464 616.946289,428.741425 616.862915,408.077789 
	C616.850891,405.095795 617.447632,402.990875 619.976685,400.874207 
	C628.265137,393.937408 628.468994,382.374573 620.862427,374.316040 
	C614.207214,367.265381 602.322937,367.341461 595.339111,374.479431 
	C587.921570,382.060730 588.306824,393.455566 595.900391,400.841827 
	C597.440613,402.339966 598.677368,404.949249 598.711670,407.067993 
	C598.951782,421.895508 597.943909,436.800262 599.121216,451.537598 
	C600.072937,463.451080 597.160828,471.391815 585.574829,475.920959 
	C580.015991,478.093933 575.082458,481.866669 569.425415,485.172241 
	C569.425415,406.988434 569.425415,329.775787 569.425415,251.674271 
	C575.568970,255.252106 581.217102,258.323029 586.593872,261.812073 
	C588.113525,262.798248 589.516479,264.891937 589.819641,266.673859 
	C591.686279,277.647247 600.626892,284.318146 611.377075,282.418732 
	C621.316650,280.662476 627.824707,270.805237 625.692810,260.735870 
	C623.482605,250.296738 613.500549,244.456421 602.713623,247.015884 
	C600.863220,247.454956 598.415161,247.219269 596.761414,246.330811 
	C588.700928,242.000381 580.868530,237.247269 572.841614,232.851608 
	C570.000000,231.295486 569.000732,229.390137 569.037537,226.116882 
	C569.217346,210.121017 569.029785,194.121231 569.169800,178.124573 
	C569.211975,173.301773 567.609436,170.085632 563.232971,167.613174 
	C545.842102,157.788376 528.623962,147.657913 511.341888,137.640503 
	C508.084229,135.752258 505.018677,134.180115 504.321075,129.522247 
	C503.846375,126.352692 501.589081,123.015068 499.230530,120.647636 
	C493.153107,114.547371 483.318481,113.970604 476.761383,118.731148 
	C469.213898,124.210716 466.791687,133.298584 470.617737,141.781357 
	C474.140625,149.591965 482.721558,153.626480 491.476471,151.400482 
	C494.380981,150.661972 496.854034,149.838104 499.932037,151.674789 
	C515.795715,161.140686 531.804504,170.365768 547.847656,179.526062 
	C550.374451,180.968796 551.228088,182.648727 551.185730,185.477493 
	C551.036072,195.473938 551.143494,205.474060 551.106262,215.472610 
	C551.101807,216.673386 550.808960,217.873093 550.602661,219.428665 
	C548.603516,218.427139 547.088196,217.764191 545.665588,216.941040 
	C520.449097,202.350342 495.247620,187.733673 470.035278,173.135742 
	C436.615662,153.785812 403.175690,134.471024 369.783173,115.074471 
	C365.464355,112.565811 361.557526,112.462051 357.149750,115.049454 
	C337.486786,126.591774 317.741638,137.995758 297.923706,149.269608 
	C296.184448,150.259018 293.493408,150.661179 291.598907,150.112396 
	C280.716217,146.959915 270.600464,151.842499 267.653046,162.026306 
	C264.743805,172.078232 270.661011,182.456680 280.743958,184.987030 
	C290.785004,187.506851 300.533325,180.932220 303.123199,170.146820 
	C303.531586,168.446182 304.731293,166.411301 306.172607,165.562592 
	C324.101746,155.005081 342.103882,144.568665 360.223724,134.342941 
	C361.836731,133.432648 364.800568,133.457291 366.458618,134.332687 
	C374.546722,138.602829 382.422607,143.277924 390.340332,147.867126 
	C442.618103,178.167938 494.865662,208.520981 547.213318,238.700516 
	C550.326904,240.495544 551.187988,242.436020 551.184998,245.774689 
	C551.110779,327.763885 551.108093,409.753143 551.196045,491.742279 
	C551.199524,494.940491 550.364807,496.904419 547.534119,498.566559 
	C532.894653,507.162720 518.369385,515.953308 503.800598,524.669861 
	C478.658813,539.712158 453.513245,554.748047 428.371277,569.790039 
	C400.799042,586.285950 373.253662,602.827332 345.597412,619.181091 
	C343.934326,620.164490 341.147064,620.378235 339.303589,619.738342 
	C328.613525,616.027222 318.448425,620.377991 314.838959,630.559937 
	C311.474213,640.051575 316.691101,650.643494 326.328979,653.888062 
	C336.093323,657.175232 346.428528,651.292297 349.818848,640.819763 
	C350.452698,638.861755 351.976044,636.712219 353.703461,635.661133 
	C373.185638,623.807007 392.786621,612.148010 412.358154,600.440796 
	C448.356049,578.907898 484.355652,557.377808 520.967957,535.449524 
M337.650848,71.095032 
	C334.604401,72.804565 331.548523,74.497482 328.512939,76.226089 
	C274.694336,106.873016 220.881561,137.530106 167.054565,168.162201 
	C163.234024,170.336411 159.313004,172.334030 154.661713,174.830841 
	C154.661713,167.513367 154.826462,161.206680 154.596207,154.914429 
	C154.470215,151.470963 155.445358,149.064987 158.131439,146.734787 
	C163.593597,141.996353 164.663498,135.587952 162.909210,128.901016 
	C161.123550,122.094513 156.535660,117.663513 149.574356,116.105064 
	C141.011581,114.188095 133.319977,118.014435 129.224609,126.008484 
	C125.521095,133.237656 127.028748,141.715683 133.526260,147.305893 
	C135.943802,149.385834 136.847122,151.418015 136.780823,154.520203 
	C136.592133,163.349136 136.607666,172.186737 136.774170,181.016556 
	C136.830246,183.990112 136.095963,185.810883 133.290955,187.355988 
	C120.898834,194.182129 108.761864,201.474396 96.324944,208.214890 
	C91.216591,210.983475 89.466232,214.731323 89.518425,220.328232 
	C89.709587,240.825592 89.671669,261.326538 89.479477,281.823883 
	C89.459366,283.968567 88.410263,286.705200 86.876183,288.133575 
	C78.730431,295.717957 78.103485,307.375977 85.774338,315.290253 
	C92.422638,322.149536 104.701691,322.071320 111.560677,315.125977 
	C118.805511,307.789856 118.154243,295.593903 110.338860,288.312164 
	C109.065735,287.125977 107.915848,285.056976 107.901100,283.385498 
	C107.731926,264.221130 107.766464,245.054581 107.852196,225.889099 
	C107.858162,224.556427 108.297050,222.552368 109.217407,222.001678 
	C117.994873,216.749710 126.919807,211.744247 136.238312,206.418839 
	C136.238312,290.722504 136.238312,374.174500 136.238312,458.082764 
	C132.356155,455.898956 129.030563,454.027130 125.703926,452.157166 
	C120.664078,449.324188 115.314079,446.895477 114.958664,439.798340 
	C114.879440,438.216522 113.340576,436.539398 112.137459,435.210602 
	C105.917862,428.341187 95.601654,427.196014 88.052231,432.412384 
	C80.854721,437.385620 78.302734,447.253662 82.192459,455.071014 
	C86.550957,463.830475 95.775063,467.864044 104.817276,464.412964 
	C107.688828,463.316986 109.658401,463.629059 112.071266,465.081665 
	C118.345482,468.858826 124.586586,472.739899 131.124786,476.012268 
	C135.401703,478.152863 136.979446,480.747101 136.850754,485.645081 
	C136.470093,500.134460 136.764664,514.640564 136.687881,529.139526 
	C136.664566,533.538818 138.194489,536.650269 142.181488,538.926208 
	C159.819382,548.994629 177.314438,559.313110 194.939087,569.405029 
	C198.417801,571.396973 200.539581,573.702942 201.634399,577.856689 
	C204.344040,588.137085 214.368835,593.355469 224.277130,590.357056 
	C233.458115,587.578735 239.200607,577.174744 236.537643,568.143799 
	C233.544403,557.992676 223.603149,552.824158 213.231689,555.540649 
	C210.867889,556.159729 207.633057,555.786682 205.506226,554.601440 
	C190.819366,546.416626 176.457764,537.641907 161.689392,529.612732 
	C156.116364,526.582825 154.024902,523.054321 154.502747,516.708496 
	C155.144638,508.184265 154.661835,499.575378 154.661835,490.330505 
	C156.285553,490.991333 157.053314,491.205261 157.722427,491.590485 
	C174.889130,501.473969 192.064285,511.342896 209.199921,521.280029 
	C247.646042,543.575439 286.072144,565.905334 324.504669,588.224182 
	C327.927063,590.211609 331.378326,590.586609 334.919403,588.527161 
	C352.475952,578.316406 370.069702,568.168945 387.566406,557.856689 
	C391.126038,555.758789 394.165863,554.567505 398.617249,556.015991 
	C408.668304,559.286926 418.214905,553.215454 421.051727,542.570679 
	C423.446045,533.586365 417.136475,523.249939 407.876282,520.986389 
	C398.021362,518.577454 388.183441,524.256836 385.998810,534.146545 
	C385.213409,537.702148 383.350342,539.568604 380.486969,541.213074 
	C366.914825,549.007690 353.164490,556.529297 339.950439,564.894958 
	C333.027100,569.278076 327.170654,570.590149 320.490753,564.987793 
	C317.855377,562.777527 314.481812,561.451599 311.457550,559.700256 
	C260.315308,530.084290 209.158768,500.492767 158.106247,470.722931 
	C156.416611,469.737640 154.807495,466.936523 154.803879,464.978821 
	C154.640945,376.649475 154.677734,288.319794 154.597595,199.990219 
	C154.594788,196.880966 155.681870,195.276779 158.352936,193.787521 
	C177.546463,183.086151 196.660263,172.241119 215.762863,161.377518 
	C259.466309,136.523499 303.127014,111.593994 346.907349,86.876282 
	C349.007935,85.690331 352.263916,85.522621 354.684113,86.109177 
	C365.084503,88.629829 375.188080,82.953995 377.550476,72.830292 
	C379.894653,62.784935 373.850983,53.012150 363.864716,50.699989 
	C353.882233,48.388699 344.163513,55.064438 341.891449,65.432739 
	C341.465759,67.375290 339.560608,68.993645 337.650848,71.095032 
z"/>
<path fill="#A4DCF5" opacity="1.000000" stroke="none" 
	d="
M250.874756,253.840729 
	C278.271637,237.982285 305.471588,222.505707 332.372772,206.526184 
	C344.379456,199.394104 355.565948,199.362366 367.571838,206.447433 
	C399.682343,225.396988 431.962799,244.061172 464.297089,262.627411 
	C475.062012,268.808594 480.066681,277.789307 480.042267,290.048798 
	C479.966370,328.201141 479.984955,366.353729 480.030701,404.506165 
	C480.045410,416.796204 474.747467,425.680603 464.042236,431.821350 
	C431.558014,450.454926 399.121857,469.175446 366.833679,488.145813 
	C355.293213,494.926147 344.497131,494.790558 332.988892,488.018005 
	C300.430420,468.857574 267.672455,450.035645 234.960037,431.137573 
	C225.350235,425.585907 220.082153,417.398560 220.051544,406.307312 
	C219.942581,366.822296 219.947922,327.336670 220.050720,287.851593 
	C220.079086,276.958344 225.169281,268.798065 234.605637,263.340942 
	C239.936752,260.257874 245.240204,257.127075 250.874756,253.840729 
z"/>
<path fill="#F7AC3D" opacity="1.000000" stroke="none" 
	d="
M520.661255,535.648071 
	C484.355652,557.377808 448.356049,578.907898 412.358154,600.440796 
	C392.786621,612.148010 373.185638,623.807007 353.703461,635.661133 
	C351.976044,636.712219 350.452698,638.861755 349.818848,640.819763 
	C346.428528,651.292297 336.093323,657.175232 326.328979,653.888062 
	C316.691101,650.643494 311.474213,640.051575 314.838959,630.559937 
	C318.448425,620.377991 328.613525,616.027222 339.303589,619.738342 
	C341.147064,620.378235 343.934326,620.164490 345.597412,619.181091 
	C373.253662,602.827332 400.799042,586.285950 428.371277,569.790039 
	C453.513245,554.748047 478.658813,539.712158 503.800598,524.669861 
	C518.369385,515.953308 532.894653,507.162720 547.534119,498.566559 
	C550.364807,496.904419 551.199524,494.940491 551.196045,491.742279 
	C551.108093,409.753143 551.110779,327.763885 551.184998,245.774689 
	C551.187988,242.436020 550.326904,240.495544 547.213318,238.700516 
	C494.865662,208.520981 442.618103,178.167938 390.340332,147.867126 
	C382.422607,143.277924 374.546722,138.602829 366.458618,134.332687 
	C364.800568,133.457291 361.836731,133.432648 360.223724,134.342941 
	C342.103882,144.568665 324.101746,155.005081 306.172607,165.562592 
	C304.731293,166.411301 303.531586,168.446182 303.123199,170.146820 
	C300.533325,180.932220 290.785004,187.506851 280.743958,184.987030 
	C270.661011,182.456680 264.743805,172.078232 267.653046,162.026306 
	C270.600464,151.842499 280.716217,146.959915 291.598907,150.112396 
	C293.493408,150.661179 296.184448,150.259018 297.923706,149.269608 
	C317.741638,137.995758 337.486786,126.591774 357.149750,115.049454 
	C361.557526,112.462051 365.464355,112.565811 369.783173,115.074471 
	C403.175690,134.471024 436.615662,153.785812 470.035278,173.135742 
	C495.247620,187.733673 520.449097,202.350342 545.665588,216.941040 
	C547.088196,217.764191 548.603516,218.427139 550.602661,219.428665 
	C550.808960,217.873093 551.101807,216.673386 551.106262,215.472610 
	C551.143494,205.474060 551.036072,195.473938 551.185730,185.477493 
	C551.228088,182.648727 550.374451,180.968796 547.847656,179.526062 
	C531.804504,170.365768 515.795715,161.140686 499.932037,151.674789 
	C496.854034,149.838104 494.380981,150.661972 491.476471,151.400482 
	C482.721558,153.626480 474.140625,149.591965 470.617737,141.781357 
	C466.791687,133.298584 469.213898,124.210716 476.761383,118.731148 
	C483.318481,113.970604 493.153107,114.547371 499.230530,120.647636 
	C501.589081,123.015068 503.846375,126.352692 504.321075,129.522247 
	C505.018677,134.180115 508.084229,135.752258 511.341888,137.640503 
	C528.623962,147.657913 545.842102,157.788376 563.232971,167.613174 
	C567.609436,170.085632 569.211975,173.301773 569.169800,178.124573 
	C569.029785,194.121231 569.217346,210.121017 569.037537,226.116882 
	C569.000732,229.390137 570.000000,231.295486 572.841614,232.851608 
	C580.868530,237.247269 588.700928,242.000381 596.761414,246.330811 
	C598.415161,247.219269 600.863220,247.454956 602.713623,247.015884 
	C613.500549,244.456421 623.482605,250.296738 625.692810,260.735870 
	C627.824707,270.805237 621.316650,280.662476 611.377075,282.418732 
	C600.626892,284.318146 591.686279,277.647247 589.819641,266.673859 
	C589.516479,264.891937 588.113525,262.798248 586.593872,261.812073 
	C581.217102,258.323029 575.568970,255.252106 569.425415,251.674271 
	C569.425415,329.775787 569.425415,406.988434 569.425415,485.172241 
	C575.082458,481.866669 580.015991,478.093933 585.574829,475.920959 
	C597.160828,471.391815 600.072937,463.451080 599.121216,451.537598 
	C597.943909,436.800262 598.951782,421.895508 598.711670,407.067993 
	C598.677368,404.949249 597.440613,402.339966 595.900391,400.841827 
	C588.306824,393.455566 587.921570,382.060730 595.339111,374.479431 
	C602.322937,367.341461 614.207214,367.265381 620.862427,374.316040 
	C628.468994,382.374573 628.265137,393.937408 619.976685,400.874207 
	C617.447632,402.990875 616.850891,405.095795 616.862915,408.077789 
	C616.946289,428.741425 616.798706,449.406464 616.977478,470.068878 
	C617.026245,475.701355 614.985840,479.450348 610.079407,482.257446 
	C598.376587,488.953064 586.950012,496.133667 575.211060,502.762756 
	C570.665710,505.329529 568.740845,508.249725 568.960632,513.722046 
	C569.461914,526.200256 569.219727,538.713745 569.054626,551.209900 
	C569.007812,554.754333 569.836304,557.285400 572.610962,559.831665 
	C579.887939,566.509338 580.295715,576.961731 574.117859,584.626160 
	C568.580261,591.496033 558.086914,593.232971 550.604126,588.518188 
	C542.521912,583.425720 539.742676,573.024841 544.177368,564.342041 
	C544.702759,563.313354 545.194580,562.012329 546.086670,561.467957 
	C551.362549,558.249023 551.327393,553.293823 551.196045,547.970825 
	C550.954529,538.185364 551.127075,528.389587 551.127075,517.511658 
	C540.549988,523.802673 530.758972,529.626099 520.661255,535.648071 
z"/>
<path fill="#F7AC3D" opacity="1.000000" stroke="none" 
	d="
M337.994507,70.928322 
	C339.560608,68.993645 341.465759,67.375290 341.891449,65.432739 
	C344.163513,55.064438 353.882233,48.388699 363.864716,50.699989 
	C373.850983,53.012150 379.894653,62.784935 377.550476,72.830292 
	C375.188080,82.953995 365.084503,88.629829 354.684113,86.109177 
	C352.263916,85.522621 349.007935,85.690331 346.907349,86.876282 
	C303.127014,111.593994 259.466309,136.523499 215.762863,161.377518 
	C196.660263,172.241119 177.546463,183.086151 158.352936,193.787521 
	C155.681870,195.276779 154.594788,196.880966 154.597595,199.990219 
	C154.677734,288.319794 154.640945,376.649475 154.803879,464.978821 
	C154.807495,466.936523 156.416611,469.737640 158.106247,470.722931 
	C209.158768,500.492767 260.315308,530.084290 311.457550,559.700256 
	C314.481812,561.451599 317.855377,562.777527 320.490753,564.987793 
	C327.170654,570.590149 333.027100,569.278076 339.950439,564.894958 
	C353.164490,556.529297 366.914825,549.007690 380.486969,541.213074 
	C383.350342,539.568604 385.213409,537.702148 385.998810,534.146545 
	C388.183441,524.256836 398.021362,518.577454 407.876282,520.986389 
	C417.136475,523.249939 423.446045,533.586365 421.051727,542.570679 
	C418.214905,553.215454 408.668304,559.286926 398.617249,556.015991 
	C394.165863,554.567505 391.126038,555.758789 387.566406,557.856689 
	C370.069702,568.168945 352.475952,578.316406 334.919403,588.527161 
	C331.378326,590.586609 327.927063,590.211609 324.504669,588.224182 
	C286.072144,565.905334 247.646042,543.575439 209.199921,521.280029 
	C192.064285,511.342896 174.889130,501.473969 157.722427,491.590485 
	C157.053314,491.205261 156.285553,490.991333 154.661835,490.330505 
	C154.661835,499.575378 155.144638,508.184265 154.502747,516.708496 
	C154.024902,523.054321 156.116364,526.582825 161.689392,529.612732 
	C176.457764,537.641907 190.819366,546.416626 205.506226,554.601440 
	C207.633057,555.786682 210.867889,556.159729 213.231689,555.540649 
	C223.603149,552.824158 233.544403,557.992676 236.537643,568.143799 
	C239.200607,577.174744 233.458115,587.578735 224.277130,590.357056 
	C214.368835,593.355469 204.344040,588.137085 201.634399,577.856689 
	C200.539581,573.702942 198.417801,571.396973 194.939087,569.405029 
	C177.314438,559.313110 159.819382,548.994629 142.181488,538.926208 
	C138.194489,536.650269 136.664566,533.538818 136.687881,529.139526 
	C136.764664,514.640564 136.470093,500.134460 136.850754,485.645081 
	C136.979446,480.747101 135.401703,478.152863 131.124786,476.012268 
	C124.586586,472.739899 118.345482,468.858826 112.071266,465.081665 
	C109.658401,463.629059 107.688828,463.316986 104.817276,464.412964 
	C95.775063,467.864044 86.550957,463.830475 82.192459,455.071014 
	C78.302734,447.253662 80.854721,437.385620 88.052231,432.412384 
	C95.601654,427.196014 105.917862,428.341187 112.137459,435.210602 
	C113.340576,436.539398 114.879440,438.216522 114.958664,439.798340 
	C115.314079,446.895477 120.664078,449.324188 125.703926,452.157166 
	C129.030563,454.027130 132.356155,455.898956 136.238312,458.082764 
	C136.238312,374.174500 136.238312,290.722504 136.238312,206.418839 
	C126.919807,211.744247 117.994873,216.749710 109.217407,222.001678 
	C108.297050,222.552368 107.858162,224.556427 107.852196,225.889099 
	C107.766464,245.054581 107.731926,264.221130 107.901100,283.385498 
	C107.915848,285.056976 109.065735,287.125977 110.338860,288.312164 
	C118.154243,295.593903 118.805511,307.789856 111.560677,315.125977 
	C104.701691,322.071320 92.422638,322.149536 85.774338,315.290253 
	C78.103485,307.375977 78.730431,295.717957 86.876183,288.133575 
	C88.410263,286.705200 89.459366,283.968567 89.479477,281.823883 
	C89.671669,261.326538 89.709587,240.825592 89.518425,220.328232 
	C89.466232,214.731323 91.216591,210.983475 96.324944,208.214890 
	C108.761864,201.474396 120.898834,194.182129 133.290955,187.355988 
	C136.095963,185.810883 136.830246,183.990112 136.774170,181.016556 
	C136.607666,172.186737 136.592133,163.349136 136.780823,154.520203 
	C136.847122,151.418015 135.943802,149.385834 133.526260,147.305893 
	C127.028748,141.715683 125.521095,133.237656 129.224609,126.008484 
	C133.319977,118.014435 141.011581,114.188095 149.574356,116.105064 
	C156.535660,117.663513 161.123550,122.094513 162.909210,128.901016 
	C164.663498,135.587952 163.593597,141.996353 158.131439,146.734787 
	C155.445358,149.064987 154.470215,151.470963 154.596207,154.914429 
	C154.826462,161.206680 154.661713,167.513367 154.661713,174.830841 
	C159.313004,172.334030 163.234024,170.336411 167.054565,168.162201 
	C220.881561,137.530106 274.694336,106.873016 328.512939,76.226089 
	C331.548523,74.497482 334.604401,72.804565 337.994507,70.928322 
z"/>
</svg>