<svg version="1.1" id="Layer_1" xmlns="http://www.w3.org/2000/svg" xmlns:xlink="http://www.w3.org/1999/xlink" x="0px" y="0px"
	 width="100%" viewBox="0 0 2084 1250" enable-background="new 0 0 2084 1250" xml:space="preserve">
<path fill="#124484" opacity="1.000000" stroke="none" 
	d="
M1340.000000,1251.000000 
	C893.333496,1251.000000 447.166931,1251.000000 1.000299,1251.000000 
	C1.000200,834.333618 1.000200,417.667175 1.000100,1.000579 
	C695.666199,1.000386 1390.332397,1.000386 2084.999023,1.000193 
	C2084.999268,417.666107 2084.999268,834.332214 2084.999512,1250.999146 
	C1836.833374,1251.000000 1588.666626,1251.000000 1340.000000,1251.000000 
M248.599457,698.945740 
	C249.693192,699.703613 250.739716,700.543091 251.887512,701.207581 
	C284.994659,720.373962 318.091644,739.557983 351.240082,758.652710 
	C360.879120,764.205139 370.539948,763.834167 380.154938,758.264221 
	C412.683594,739.420105 445.259735,720.657898 477.794495,701.824219 
	C486.919006,696.542175 491.657532,688.416748 491.697235,677.988708 
	C491.842590,639.840576 491.846466,601.691162 491.697144,563.543091 
	C491.656403,553.135010 486.993896,545.000732 477.829773,539.701050 
	C445.719055,521.131165 413.534119,502.687958 381.529999,483.936188 
	C370.487823,477.466370 360.099335,477.527039 349.078522,483.974365 
	C319.071869,501.528595 289.097656,519.160339 258.667053,535.957825 
	C244.470673,543.794128 238.408951,554.340698 238.764008,570.637634 
	C239.529449,605.771118 239.076019,640.933044 238.946060,676.082703 
	C238.913361,684.928894 241.604080,692.397461 248.599457,698.945740 
M550.159851,771.708069 
	C524.015076,787.301331 497.862213,802.881042 471.727509,818.491089 
	C435.021393,840.415283 398.320068,862.347412 361.650085,884.331848 
	C359.207367,885.796326 357.220490,886.223633 354.299011,885.081299 
	C344.298065,881.170715 334.389587,885.982178 330.984680,895.943787 
	C327.855560,905.098511 333.035980,915.090149 342.516693,918.185669 
	C351.819122,921.223083 361.726837,915.673035 365.004181,905.934631 
	C365.709137,903.839844 367.310791,901.535095 369.158844,900.414185 
	C392.912659,886.006409 416.778961,871.783875 440.631592,857.539246 
	C471.767944,838.944824 502.914886,820.367981 534.063293,801.793579 
	C542.721741,796.630371 551.401245,791.502380 560.091919,786.345886 
	C560.535950,787.132812 560.812683,787.395020 560.813904,787.658508 
	C560.854553,796.323181 560.767273,804.989746 560.922485,813.652039 
	C561.027100,819.491455 561.648254,825.364624 555.527344,829.003113 
	C554.893616,829.379944 554.584106,830.350952 554.195496,831.084106 
	C549.800415,839.376404 552.222473,849.315308 559.899170,854.544434 
	C566.850647,859.279419 577.599670,857.713501 583.021790,851.175842 
	C589.204712,843.720886 588.809021,833.529968 581.584534,826.911438 
	C578.958801,824.505859 578.102173,822.164551 578.148804,818.755371 
	C578.326538,805.759399 578.324646,792.758118 578.143738,779.762268 
	C578.101379,776.720154 579.009888,774.889771 581.616638,773.365723 
	C593.681030,766.312439 605.569397,758.953979 617.711487,752.039673 
	C622.808472,749.137268 624.910828,745.346069 624.847656,739.505005 
	C624.635254,719.843018 624.830383,700.177002 624.706238,680.513550 
	C624.684998,677.144592 625.429993,674.835388 628.173767,672.442078 
	C636.004089,665.612122 635.804382,654.317505 628.228516,646.766296 
	C621.781189,640.339966 610.444275,640.523376 603.879395,647.160156 
	C596.710266,654.407837 596.956238,665.546997 604.061340,672.681091 
	C605.671265,674.297546 606.898987,677.081848 606.935791,679.350830 
	C607.184448,694.678223 606.441406,710.046570 607.297546,725.330017 
	C607.818604,734.632446 605.773254,741.020081 596.508728,744.094971 
	C594.976074,744.603638 593.708008,745.874207 592.270508,746.711853 
	C587.894470,749.262085 583.495361,751.772827 578.509949,754.641357 
	C578.509949,678.891296 578.509949,604.044495 578.509949,528.261475 
	C584.226624,531.495789 589.310852,534.477173 594.500000,537.263062 
	C597.029724,538.621216 598.263733,540.355652 598.719604,543.336914 
	C600.338257,553.922058 609.227295,559.937073 619.819580,557.991455 
	C629.100037,556.286804 635.301941,546.413574 633.166809,536.743042 
	C631.004517,526.949524 621.426208,521.360291 611.292236,523.653870 
	C609.284790,524.108276 606.661560,523.851746 604.868713,522.896973 
	C597.091614,518.755371 589.581421,514.114807 581.835510,509.911346 
	C578.919556,508.328949 578.112549,506.330627 578.146790,503.130768 
	C578.310730,487.801117 578.130371,472.467896 578.271118,457.137787 
	C578.315186,452.342987 576.826294,449.085388 572.408813,446.600433 
	C555.013367,436.814972 537.789734,426.723297 520.531616,416.694946 
	C518.149902,415.311005 516.237854,413.935455 515.611511,410.508301 
	C514.406921,403.916840 510.271393,399.074982 503.591034,397.088898 
	C496.067352,394.852051 488.378662,397.511627 484.042419,403.581390 
	C479.860565,409.435059 479.839539,418.368744 483.993774,424.285278 
	C488.228180,430.316101 495.804932,432.731140 503.558685,431.013000 
	C505.896484,430.494995 508.964417,430.357880 510.911102,431.449432 
	C526.723450,440.315948 542.388672,449.448944 557.964905,458.725494 
	C559.412598,459.587677 560.688171,461.975006 560.756104,463.704742 
	C561.056702,471.358673 560.886719,479.031067 560.886963,486.696777 
	C560.887085,490.055023 560.886963,493.413239 560.886963,497.573792 
	C544.004761,487.875092 528.131470,478.795044 512.295349,469.650665 
	C469.800354,445.112488 427.309875,420.566589 384.853577,395.961700 
	C380.562592,393.474884 376.682648,393.193817 372.237030,395.799774 
	C353.153961,406.986115 333.979492,418.018402 314.735413,428.925140 
	C313.005768,429.905457 310.329102,430.297699 308.447662,429.747620 
	C298.013916,426.696899 288.048279,431.509247 285.306366,441.279724 
	C282.565338,451.047241 288.139160,460.881134 297.913208,463.521973 
	C307.245026,466.043335 317.226837,459.930695 319.438812,449.910614 
	C320.131165,446.774536 321.631958,445.162659 324.272614,443.660919 
	C340.611938,434.368713 356.939911,425.048615 373.060974,415.386230 
	C377.076691,412.979309 380.094147,413.262970 383.875153,415.515839 
	C398.305573,424.114044 412.848480,432.524750 427.392670,440.930542 
	C470.311768,465.735474 513.224670,490.551514 556.233582,515.199951 
	C559.718689,517.197266 560.987854,519.291931 560.981140,523.320374 
	C560.853760,600.310547 560.700439,677.302063 561.141907,754.289917 
	C561.192566,763.121948 558.785889,768.395325 550.159851,771.708069 
M105.077118,569.767395 
	C101.301743,578.987915 104.227676,588.239197 112.304337,592.618408 
	C120.395988,597.005798 130.364807,594.776123 135.455750,587.440247 
	C140.642441,579.966431 139.154572,570.134399 132.191589,563.506592 
	C130.872711,562.251221 130.004959,559.872131 129.986923,558.001282 
	C129.821472,540.836853 130.121475,523.665100 129.741837,506.507477 
	C129.634018,501.634644 131.089630,498.967438 135.318390,496.814667 
	C142.773712,493.019318 149.974854,488.724670 157.591553,484.466217 
	C157.591553,566.112549 157.591553,646.953979 157.591553,728.387451 
	C151.470032,724.862976 145.804840,721.765747 140.353592,718.329102 
	C139.211075,717.608826 138.527206,715.712524 138.195465,714.231873 
	C136.714111,707.619934 132.774857,703.213501 126.436180,701.166199 
	C118.772804,698.691040 110.991165,701.432739 106.559273,707.813599 
	C101.987106,714.396423 102.170616,722.238708 107.049194,728.749817 
	C111.570351,734.783875 119.857140,737.393311 127.198692,734.365845 
	C129.998825,733.211304 131.802338,733.813660 133.985504,735.091003 
	C140.879333,739.124939 147.713028,743.277710 154.763809,747.019287 
	C157.457672,748.448853 158.030594,750.197510 158.011444,752.945923 
	C157.909195,767.611267 158.018143,782.278015 157.930725,796.943604 
	C157.904587,801.328918 159.322739,804.481506 163.332047,806.765442 
	C180.678223,816.647034 197.891525,826.761658 215.206604,836.698364 
	C218.201111,838.416870 220.113571,840.333557 221.018845,844.012878 
	C223.512466,854.147766 233.207657,859.433655 243.018448,856.619873 
	C252.068527,854.024231 257.692169,843.823853 254.999969,834.887329 
	C252.065567,825.146851 242.498306,820.202942 232.440094,822.798889 
	C230.199921,823.377075 227.147385,823.133545 225.166687,822.023315 
	C209.349991,813.158142 193.684326,804.022339 178.037552,794.858215 
	C176.930817,794.210022 175.643524,792.687866 175.623337,791.551086 
	C175.438034,781.112366 175.514252,770.669006 175.514252,759.668762 
	C177.090607,760.290527 178.022003,760.531921 178.826599,760.994019 
	C191.807999,768.449890 204.782745,775.917480 217.740494,783.414368 
	C258.632233,807.072998 299.517426,830.742981 340.401062,854.415649 
	C344.019073,856.510559 347.536835,856.641357 351.243927,854.472046 
	C368.474792,844.388977 385.781860,834.435791 402.984131,824.304565 
	C406.046539,822.500977 408.712402,822.100098 412.244171,823.213989 
	C422.283295,826.379944 431.502899,820.738037 434.340881,810.195190 
	C436.646484,801.630066 430.592712,791.637390 421.687561,789.308960 
	C412.004395,786.777161 402.498016,792.769775 399.882538,802.654236 
	C399.322083,804.772583 397.690186,807.201355 395.845306,808.292542 
	C380.096252,817.607849 364.210999,826.695251 348.267944,835.675720 
	C347.044769,836.364746 344.747375,836.296326 343.493408,835.600037 
	C332.878082,829.706177 322.383087,823.595276 311.863586,817.529358 
	C267.333282,791.851746 222.789291,766.197632 178.354462,740.355774 
	C176.828934,739.468567 175.599442,736.675049 175.596436,734.767883 
	C175.461319,649.271423 175.493195,563.774780 175.423050,478.278198 
	C175.420563,475.238220 176.378708,473.530548 179.080963,472.014038 
	C208.241562,455.648865 237.332062,439.158630 266.422638,422.668854 
	C298.406952,404.538849 330.345276,386.327271 362.407196,368.335754 
	C364.381592,367.227814 367.438599,367.038666 369.690247,367.610291 
	C379.431244,370.083160 389.365234,364.926056 391.912842,355.658386 
	C394.677307,345.601868 388.858826,335.654205 378.858124,333.339203 
	C369.158569,331.093933 359.989319,337.332855 357.510376,347.428009 
	C357.003632,349.491669 355.274597,351.810364 353.446442,352.903259 
	C342.452759,359.475616 331.284760,365.758057 320.140442,372.076324 
	C273.395081,398.578766 226.638931,425.062134 179.876068,451.533661 
	C178.698334,452.200348 177.397324,452.649292 175.478149,453.498871 
	C175.478149,450.119324 175.445786,447.640503 175.484161,445.162781 
	C175.604065,437.421753 173.497955,429.048615 181.562836,423.527466 
	C181.804123,423.362274 181.876282,422.952301 182.031403,422.658630 
	C186.524689,414.152222 183.990051,404.193726 175.985870,398.907990 
	C168.713608,394.105530 158.043106,396.069031 152.676743,403.197083 
	C146.829742,410.963562 147.966415,420.754639 155.159241,427.527069 
	C156.605652,428.888947 157.773926,431.286591 157.838959,433.247559 
	C158.126099,441.904358 157.829773,450.579193 158.030502,459.240875 
	C158.108109,462.589539 157.244843,464.515747 154.056931,466.239899 
	C142.059982,472.728455 130.390427,479.821381 118.408852,486.339844 
	C113.602631,488.954651 112.135834,492.601318 112.176865,497.739105 
	C112.320610,515.737183 112.241722,533.737244 112.226837,551.736511 
	C112.222412,557.088135 113.498055,562.851501 107.327248,566.206482 
	C106.435051,566.691589 106.051163,568.111511 105.077118,569.767395 
M1296.010498,611.116211 
	C1303.659668,615.413574 1304.867065,622.780823 1304.888184,630.472046 
	C1304.979004,663.803528 1304.928223,697.135437 1304.928711,730.467163 
	C1304.928711,732.396545 1304.928589,734.325928 1304.928589,736.376953 
	C1317.528320,736.376953 1329.444092,736.376953 1341.886475,736.376953 
	C1341.886475,734.117798 1341.886475,732.164551 1341.886475,730.211243 
	C1341.886597,697.212830 1341.869507,664.214294 1341.936401,631.216064 
	C1341.939819,629.521118 1342.092041,626.964905 1343.142578,626.267700 
	C1353.098755,619.660156 1362.822754,612.466919 1374.838135,609.859619 
	C1395.171143,605.447388 1403.952393,612.538879 1403.962036,633.304871 
	C1403.977173,665.803345 1403.966064,698.301758 1403.966064,730.800232 
	C1403.966064,732.584656 1403.966064,734.369080 1403.966064,736.360107 
	C1416.901123,736.360107 1429.301270,736.360107 1442.096558,736.360107 
	C1442.096558,731.727478 1442.099243,727.416443 1442.095947,723.105408 
	C1442.068115,687.274170 1442.278687,651.440552 1441.921265,615.612610 
	C1441.706787,594.104858 1430.052856,580.388672 1410.094360,577.052856 
	C1395.336792,574.586426 1381.013550,576.796143 1367.864014,583.612488 
	C1358.080566,588.684021 1349.094238,595.293762 1339.784180,601.198547 
	C1329.482666,581.685425 1318.510498,575.164551 1296.646851,576.237671 
	C1278.344971,577.136047 1262.569946,584.517639 1248.349121,595.654846 
	C1245.170410,598.144287 1242.047974,600.705627 1238.399536,603.635498 
	C1237.319824,595.247498 1236.354126,587.745361 1235.402344,580.350891 
	C1224.888062,580.350891 1214.957153,580.350891 1204.911621,580.350891 
	C1204.911621,632.528564 1204.911621,684.422424 1204.911621,736.385010 
	C1217.738159,736.385010 1230.166626,736.385010 1243.033936,736.385010 
	C1243.033936,734.290771 1243.033936,732.489136 1243.033936,730.687500 
	C1243.033936,697.355713 1243.001953,664.023865 1243.118408,630.692444 
	C1243.124878,628.821106 1243.790771,626.063293 1245.106201,625.232910 
	C1252.405396,620.625183 1259.733032,615.896667 1267.565430,612.343750 
	C1276.377686,608.346313 1285.822388,607.310974 1296.010498,611.116211 
M775.467285,671.770813 
	C770.572510,642.620117 770.443420,613.411255 775.046509,584.250183 
	C778.941833,559.572693 792.461548,547.698364 817.479553,547.364197 
	C833.285706,547.153137 849.108704,548.100769 864.922180,548.591003 
	C869.850525,548.743774 874.772583,549.100098 879.867065,549.372314 
	C880.960876,540.300476 881.957275,531.874939 883.004211,523.455688 
	C883.305054,521.036072 883.006470,519.535583 880.025146,518.888916 
	C851.128784,512.620972 822.047241,510.543121 792.736877,515.196716 
	C778.893677,517.394531 766.125183,522.321472 755.660828,532.190552 
	C742.937134,544.190430 737.340149,559.714355 734.029236,576.226990 
	C729.381226,599.408447 729.247803,622.904907 730.363892,646.401245 
	C731.107361,662.053406 733.057068,677.563660 738.087891,692.534058 
	C745.698608,715.181580 760.512695,730.280518 783.985352,736.175781 
	C810.987854,742.957703 838.174500,741.249146 865.325684,737.361084 
	C872.936279,736.271301 880.401550,734.166748 887.959717,732.521973 
	C886.606812,721.979858 885.404968,712.615112 884.168335,702.979248 
	C882.157104,703.080566 880.515381,703.172852 878.872742,703.244568 
	C857.923279,704.158997 836.980591,705.393311 816.021118,705.841370 
	C806.086731,706.053711 796.576355,703.462402 788.643860,696.780640 
	C781.089294,690.417114 778.148865,681.636658 775.467285,671.770813 
M1849.518799,589.155029 
	C1850.407104,596.027954 1851.295288,602.900879 1852.202881,609.924561 
	C1865.946167,609.089905 1879.212402,607.906555 1892.499634,607.583374 
	C1905.781006,607.260437 1919.095459,607.515320 1932.370361,608.092529 
	C1937.947144,608.334900 1942.386597,611.564209 1944.727661,616.964966 
	C1947.946899,624.392578 1947.302246,632.126038 1946.915283,640.173950 
	C1936.941406,640.173950 1927.461914,640.082886 1917.984863,640.195618 
	C1904.333618,640.357971 1890.624146,639.950745 1877.048218,641.086182 
	C1857.369995,642.731995 1843.633057,655.058411 1841.569946,673.064697 
	C1840.404297,683.239258 1840.540283,693.773438 1841.716309,703.957886 
	C1843.610474,720.361877 1853.435547,731.224426 1869.000244,736.407471 
	C1891.398804,743.866089 1912.433838,739.764648 1931.938965,727.316223 
	C1938.704346,722.998535 1944.678955,717.441833 1951.432983,712.121704 
	C1952.630615,719.320618 1953.696045,726.353638 1955.058960,733.328430 
	C1955.300537,734.564819 1956.756592,736.496155 1957.692749,736.520325 
	C1966.972290,736.759888 1976.260498,736.665344 1985.734619,736.665344 
	C1985.846191,734.829895 1985.993408,733.533264 1985.993774,732.236633 
	C1986.005249,697.413269 1986.038086,662.589783 1985.953979,627.766602 
	C1985.943604,623.452698 1985.492554,619.113953 1984.912354,614.831909 
	C1982.383179,596.168274 1971.728149,583.684448 1953.848633,579.441162 
	C1946.133057,577.610046 1938.052002,576.201599 1930.178101,576.383362 
	C1912.715210,576.786255 1895.260742,578.093323 1877.837769,579.473328 
	C1868.276611,580.230652 1858.786499,581.884949 1848.968994,583.173584 
	C1849.136475,585.385376 1849.246826,586.842346 1849.518799,589.155029 
M948.967468,582.455933 
	C933.329651,588.552490 922.897644,599.780762 918.327087,615.728943 
	C910.208984,644.055908 910.129456,672.679749 918.278198,700.993591 
	C923.793884,720.158447 937.181091,731.937744 956.404358,736.830383 
	C978.936157,742.565186 1001.584656,742.495056 1024.123535,736.873840 
	C1044.670044,731.749512 1057.843872,718.794617 1063.111694,698.260132 
	C1069.949097,671.607117 1069.876831,644.833008 1062.987183,618.220032 
	C1057.840332,598.339233 1045.156250,585.361267 1025.115356,580.409912 
	C999.879211,574.174988 974.663391,574.396973 948.967468,582.455933 
M1611.609253,591.880432 
	C1605.255859,585.927734 1597.652344,582.214111 1589.308350,580.214111 
	C1569.139893,575.379822 1548.859863,575.065979 1528.362671,578.480713 
	C1501.202759,583.005432 1485.500977,598.812012 1480.457153,625.547729 
	C1476.814819,644.854370 1476.566040,664.295898 1479.375488,683.710510 
	C1481.278809,696.862793 1485.245850,709.336853 1494.174072,719.647400 
	C1504.837646,731.962036 1519.232544,736.815918 1534.654053,739.020996 
	C1554.425537,741.848083 1574.205811,740.860474 1593.816528,737.360352 
	C1603.235962,735.679260 1612.522339,733.252747 1622.047119,731.123901 
	C1620.607178,722.017761 1619.349609,714.064209 1618.054321,705.872498 
	C1615.361938,706.092896 1613.227905,706.336182 1611.087402,706.432251 
	C1592.135986,707.282959 1573.176025,708.911194 1554.233032,708.735718 
	C1530.762451,708.518372 1517.326294,693.802979 1519.334961,672.002747 
	C1521.104004,672.002747 1522.911621,672.004028 1524.719238,672.002502 
	C1545.038208,671.985718 1565.364258,672.294006 1585.673706,671.846008 
	C1601.236938,671.502747 1615.129761,667.122986 1621.995361,651.232971 
	C1627.976929,637.389282 1628.732788,607.968323 1611.609253,591.880432 
M1699.036011,710.500000 
	C1699.036011,684.179382 1699.103882,657.858337 1698.954590,631.538574 
	C1698.934814,628.054688 1699.905884,626.123962 1703.154907,624.702820 
	C1707.865479,622.642395 1712.270020,619.894836 1716.907104,617.651367 
	C1727.932007,612.317200 1739.250244,608.166626 1751.844849,608.963806 
	C1761.914062,609.601135 1767.129639,614.370422 1768.026978,624.340820 
	C1768.340210,627.819336 1768.498169,631.323669 1768.502075,634.816406 
	C1768.537354,666.801086 1768.516357,698.785706 1768.539795,730.770386 
	C1768.541260,732.669556 1768.784668,734.568542 1768.901367,736.263184 
	C1781.944702,736.263184 1794.335205,736.263184 1806.970215,736.263184 
	C1806.970215,723.517212 1806.972900,711.198669 1806.969727,698.880188 
	C1806.962769,671.560059 1807.168213,644.237671 1806.880127,616.920471 
	C1806.620483,592.305908 1794.777344,579.242432 1770.444824,576.625000 
	C1751.185425,574.553223 1733.548706,580.244568 1717.012085,589.582336 
	C1709.554443,593.793335 1702.534180,598.778870 1695.031860,603.595154 
	C1694.019653,595.736816 1693.028564,588.041809 1692.037964,580.350708 
	C1681.376099,580.350708 1671.120483,580.350708 1660.690430,580.350708 
	C1660.690430,632.493164 1660.690430,684.349792 1660.690430,736.322998 
	C1673.632568,736.322998 1686.188599,736.322998 1699.036011,736.322998 
	C1699.036011,727.804504 1699.036011,719.652283 1699.036011,710.500000 
M1150.103271,704.704529 
	C1143.885376,700.663269 1142.786987,694.545776 1142.803467,687.712708 
	C1142.940063,631.420654 1142.973267,575.128418 1143.037598,518.836182 
	C1143.039429,517.211426 1143.037842,515.586609 1143.037842,513.734253 
	C1129.998901,513.734253 1117.439819,513.734253 1104.304810,513.734253 
	C1104.304810,516.014771 1104.304810,517.964661 1104.304810,519.914490 
	C1104.304932,578.705566 1104.293579,637.496582 1104.332397,696.287659 
	C1104.334839,699.942261 1104.472900,703.633545 1104.989624,707.244568 
	C1107.112427,722.073792 1115.050415,732.344971 1129.424561,737.105286 
	C1145.594116,742.460083 1161.668823,739.881409 1177.596191,735.766907 
	C1178.706787,735.479980 1180.046875,732.855957 1179.897217,731.467590 
	C1179.203247,725.023926 1177.791992,718.657349 1177.105103,712.213257 
	C1176.726196,708.660156 1175.479614,707.659180 1171.860596,707.480774 
	C1164.807129,707.132935 1157.795166,705.944946 1150.103271,704.704529 
z"/>
<path fill="#A4DCF5" opacity="1.000000" stroke="none" 
	d="
M248.342712,698.698181 
	C241.604080,692.397461 238.913361,684.928894 238.946060,676.082703 
	C239.076019,640.933044 239.529449,605.771118 238.764008,570.637634 
	C238.408951,554.340698 244.470673,543.794128 258.667053,535.957825 
	C289.097656,519.160339 319.071869,501.528595 349.078522,483.974365 
	C360.099335,477.527039 370.487823,477.466370 381.529999,483.936188 
	C413.534119,502.687958 445.719055,521.131165 477.829773,539.701050 
	C486.993896,545.000732 491.656403,553.135010 491.697144,563.543091 
	C491.846466,601.691162 491.842590,639.840576 491.697235,677.988708 
	C491.657532,688.416748 486.919006,696.542175 477.794495,701.824219 
	C445.259735,720.657898 412.683594,739.420105 380.154938,758.264221 
	C370.539948,763.834167 360.879120,764.205139 351.240082,758.652710 
	C318.091644,739.557983 284.994659,720.373962 251.887512,701.207581 
	C250.739716,700.543091 249.693192,699.703613 248.342712,698.698181 
z"/>
<path fill="#F9AC3C" opacity="1.000000" stroke="none" 
	d="
M550.471313,771.515259 
	C558.785889,768.395325 561.192566,763.121948 561.141907,754.289917 
	C560.700439,677.302063 560.853760,600.310547 560.981140,523.320374 
	C560.987854,519.291931 559.718689,517.197266 556.233582,515.199951 
	C513.224670,490.551514 470.311768,465.735474 427.392670,440.930542 
	C412.848480,432.524750 398.305573,424.114044 383.875153,415.515839 
	C380.094147,413.262970 377.076691,412.979309 373.060974,415.386230 
	C356.939911,425.048615 340.611938,434.368713 324.272614,443.660919 
	C321.631958,445.162659 320.131165,446.774536 319.438812,449.910614 
	C317.226837,459.930695 307.245026,466.043335 297.913208,463.521973 
	C288.139160,460.881134 282.565338,451.047241 285.306366,441.279724 
	C288.048279,431.509247 298.013916,426.696899 308.447662,429.747620 
	C310.329102,430.297699 313.005768,429.905457 314.735413,428.925140 
	C333.979492,418.018402 353.153961,406.986115 372.237030,395.799774 
	C376.682648,393.193817 380.562592,393.474884 384.853577,395.961700 
	C427.309875,420.566589 469.800354,445.112488 512.295349,469.650665 
	C528.131470,478.795044 544.004761,487.875092 560.886963,497.573792 
	C560.886963,493.413239 560.887085,490.055023 560.886963,486.696777 
	C560.886719,479.031067 561.056702,471.358673 560.756104,463.704742 
	C560.688171,461.975006 559.412598,459.587677 557.964905,458.725494 
	C542.388672,449.448944 526.723450,440.315948 510.911102,431.449432 
	C508.964417,430.357880 505.896484,430.494995 503.558685,431.013000 
	C495.804932,432.731140 488.228180,430.316101 483.993774,424.285278 
	C479.839539,418.368744 479.860565,409.435059 484.042419,403.581390 
	C488.378662,397.511627 496.067352,394.852051 503.591034,397.088898 
	C510.271393,399.074982 514.406921,403.916840 515.611511,410.508301 
	C516.237854,413.935455 518.149902,415.311005 520.531616,416.694946 
	C537.789734,426.723297 555.013367,436.814972 572.408813,446.600433 
	C576.826294,449.085388 578.315186,452.342987 578.271118,457.137787 
	C578.130371,472.467896 578.310730,487.801117 578.146790,503.130768 
	C578.112549,506.330627 578.919556,508.328949 581.835510,509.911346 
	C589.581421,514.114807 597.091614,518.755371 604.868713,522.896973 
	C606.661560,523.851746 609.284790,524.108276 611.292236,523.653870 
	C621.426208,521.360291 631.004517,526.949524 633.166809,536.743042 
	C635.301941,546.413574 629.100037,556.286804 619.819580,557.991455 
	C609.227295,559.937073 600.338257,553.922058 598.719604,543.336914 
	C598.263733,540.355652 597.029724,538.621216 594.500000,537.263062 
	C589.310852,534.477173 584.226624,531.495789 578.509949,528.261475 
	C578.509949,604.044495 578.509949,678.891296 578.509949,754.641357 
	C583.495361,751.772827 587.894470,749.262085 592.270508,746.711853 
	C593.708008,745.874207 594.976074,744.603638 596.508728,744.094971 
	C605.773254,741.020081 607.818604,734.632446 607.297546,725.330017 
	C606.441406,710.046570 607.184448,694.678223 606.935791,679.350830 
	C606.898987,677.081848 605.671265,674.297546 604.061340,672.681091 
	C596.956238,665.546997 596.710266,654.407837 603.879395,647.160156 
	C610.444275,640.523376 621.781189,640.339966 628.228516,646.766296 
	C635.804382,654.317505 636.004089,665.612122 628.173767,672.442078 
	C625.429993,674.835388 624.684998,677.144592 624.706238,680.513550 
	C624.830383,700.177002 624.635254,719.843018 624.847656,739.505005 
	C624.910828,745.346069 622.808472,749.137268 617.711487,752.039673 
	C605.569397,758.953979 593.681030,766.312439 581.616638,773.365723 
	C579.009888,774.889771 578.101379,776.720154 578.143738,779.762268 
	C578.324646,792.758118 578.326538,805.759399 578.148804,818.755371 
	C578.102173,822.164551 578.958801,824.505859 581.584534,826.911438 
	C588.809021,833.529968 589.204712,843.720886 583.021790,851.175842 
	C577.599670,857.713501 566.850647,859.279419 559.899170,854.544434 
	C552.222473,849.315308 549.800415,839.376404 554.195496,831.084106 
	C554.584106,830.350952 554.893616,829.379944 555.527344,829.003113 
	C561.648254,825.364624 561.027100,819.491455 560.922485,813.652039 
	C560.767273,804.989746 560.854553,796.323181 560.813904,787.658508 
	C560.812683,787.395020 560.535950,787.132812 560.091919,786.345886 
	C551.401245,791.502380 542.721741,796.630371 534.063293,801.793579 
	C502.914886,820.367981 471.767944,838.944824 440.631592,857.539246 
	C416.778961,871.783875 392.912659,886.006409 369.158844,900.414185 
	C367.310791,901.535095 365.709137,903.839844 365.004181,905.934631 
	C361.726837,915.673035 351.819122,921.223083 342.516693,918.185669 
	C333.035980,915.090149 327.855560,905.098511 330.984680,895.943787 
	C334.389587,885.982178 344.298065,881.170715 354.299011,885.081299 
	C357.220490,886.223633 359.207367,885.796326 361.650085,884.331848 
	C398.320068,862.347412 435.021393,840.415283 471.727509,818.491089 
	C497.862213,802.881042 524.015076,787.301331 550.471313,771.515259 
z"/>
<path fill="#F9AC3C" opacity="1.000000" stroke="none" 
	d="
M105.254593,569.433105 
	C106.051163,568.111511 106.435051,566.691589 107.327248,566.206482 
	C113.498055,562.851501 112.222412,557.088135 112.226837,551.736511 
	C112.241722,533.737244 112.320610,515.737183 112.176865,497.739105 
	C112.135834,492.601318 113.602631,488.954651 118.408852,486.339844 
	C130.390427,479.821381 142.059982,472.728455 154.056931,466.239899 
	C157.244843,464.515747 158.108109,462.589539 158.030502,459.240875 
	C157.829773,450.579193 158.126099,441.904358 157.838959,433.247559 
	C157.773926,431.286591 156.605652,428.888947 155.159241,427.527069 
	C147.966415,420.754639 146.829742,410.963562 152.676743,403.197083 
	C158.043106,396.069031 168.713608,394.105530 175.985870,398.907990 
	C183.990051,404.193726 186.524689,414.152222 182.031403,422.658630 
	C181.876282,422.952301 181.804123,423.362274 181.562836,423.527466 
	C173.497955,429.048615 175.604065,437.421753 175.484161,445.162781 
	C175.445786,447.640503 175.478149,450.119324 175.478149,453.498871 
	C177.397324,452.649292 178.698334,452.200348 179.876068,451.533661 
	C226.638931,425.062134 273.395081,398.578766 320.140442,372.076324 
	C331.284760,365.758057 342.452759,359.475616 353.446442,352.903259 
	C355.274597,351.810364 357.003632,349.491669 357.510376,347.428009 
	C359.989319,337.332855 369.158569,331.093933 378.858124,333.339203 
	C388.858826,335.654205 394.677307,345.601868 391.912842,355.658386 
	C389.365234,364.926056 379.431244,370.083160 369.690247,367.610291 
	C367.438599,367.038666 364.381592,367.227814 362.407196,368.335754 
	C330.345276,386.327271 298.406952,404.538849 266.422638,422.668854 
	C237.332062,439.158630 208.241562,455.648865 179.080963,472.014038 
	C176.378708,473.530548 175.420563,475.238220 175.423050,478.278198 
	C175.493195,563.774780 175.461319,649.271423 175.596436,734.767883 
	C175.599442,736.675049 176.828934,739.468567 178.354462,740.355774 
	C222.789291,766.197632 267.333282,791.851746 311.863586,817.529358 
	C322.383087,823.595276 332.878082,829.706177 343.493408,835.600037 
	C344.747375,836.296326 347.044769,836.364746 348.267944,835.675720 
	C364.210999,826.695251 380.096252,817.607849 395.845306,808.292542 
	C397.690186,807.201355 399.322083,804.772583 399.882538,802.654236 
	C402.498016,792.769775 412.004395,786.777161 421.687561,789.308960 
	C430.592712,791.637390 436.646484,801.630066 434.340881,810.195190 
	C431.502899,820.738037 422.283295,826.379944 412.244171,823.213989 
	C408.712402,822.100098 406.046539,822.500977 402.984131,824.304565 
	C385.781860,834.435791 368.474792,844.388977 351.243927,854.472046 
	C347.536835,856.641357 344.019073,856.510559 340.401062,854.415649 
	C299.517426,830.742981 258.632233,807.072998 217.740494,783.414368 
	C204.782745,775.917480 191.807999,768.449890 178.826599,760.994019 
	C178.022003,760.531921 177.090607,760.290527 175.514252,759.668762 
	C175.514252,770.669006 175.438034,781.112366 175.623337,791.551086 
	C175.643524,792.687866 176.930817,794.210022 178.037552,794.858215 
	C193.684326,804.022339 209.349991,813.158142 225.166687,822.023315 
	C227.147385,823.133545 230.199921,823.377075 232.440094,822.798889 
	C242.498306,820.202942 252.065567,825.146851 254.999969,834.887329 
	C257.692169,843.823853 252.068527,854.024231 243.018448,856.619873 
	C233.207657,859.433655 223.512466,854.147766 221.018845,844.012878 
	C220.113571,840.333557 218.201111,838.416870 215.206604,836.698364 
	C197.891525,826.761658 180.678223,816.647034 163.332047,806.765442 
	C159.322739,804.481506 157.904587,801.328918 157.930725,796.943604 
	C158.018143,782.278015 157.909195,767.611267 158.011444,752.945923 
	C158.030594,750.197510 157.457672,748.448853 154.763809,747.019287 
	C147.713028,743.277710 140.879333,739.124939 133.985504,735.091003 
	C131.802338,733.813660 129.998825,733.211304 127.198692,734.365845 
	C119.857140,737.393311 111.570351,734.783875 107.049194,728.749817 
	C102.170616,722.238708 101.987106,714.396423 106.559273,707.813599 
	C110.991165,701.432739 118.772804,698.691040 126.436180,701.166199 
	C132.774857,703.213501 136.714111,707.619934 138.195465,714.231873 
	C138.527206,715.712524 139.211075,717.608826 140.353592,718.329102 
	C145.804840,721.765747 151.470032,724.862976 157.591553,728.387451 
	C157.591553,646.953979 157.591553,566.112549 157.591553,484.466217 
	C149.974854,488.724670 142.773712,493.019318 135.318390,496.814667 
	C131.089630,498.967438 129.634018,501.634644 129.741837,506.507477 
	C130.121475,523.665100 129.821472,540.836853 129.986923,558.001282 
	C130.004959,559.872131 130.872711,562.251221 132.191589,563.506592 
	C139.154572,570.134399 140.642441,579.966431 135.455750,587.440247 
	C130.364807,594.776123 120.395988,597.005798 112.304337,592.618408 
	C104.227676,588.239197 101.301743,578.987915 105.254593,569.433105 
z"/>
<path fill="#FAAD3C" opacity="1.000000" stroke="none" 
	d="
M1295.643799,610.973389 
	C1285.822388,607.310974 1276.377686,608.346313 1267.565430,612.343750 
	C1259.733032,615.896667 1252.405396,620.625183 1245.106201,625.232910 
	C1243.790771,626.063293 1243.124878,628.821106 1243.118408,630.692444 
	C1243.001953,664.023865 1243.033936,697.355713 1243.033936,730.687500 
	C1243.033936,732.489136 1243.033936,734.290771 1243.033936,736.385010 
	C1230.166626,736.385010 1217.738159,736.385010 1204.911621,736.385010 
	C1204.911621,684.422424 1204.911621,632.528564 1204.911621,580.350891 
	C1214.957153,580.350891 1224.888062,580.350891 1235.402344,580.350891 
	C1236.354126,587.745361 1237.319824,595.247498 1238.399536,603.635498 
	C1242.047974,600.705627 1245.170410,598.144287 1248.349121,595.654846 
	C1262.569946,584.517639 1278.344971,577.136047 1296.646851,576.237671 
	C1318.510498,575.164551 1329.482666,581.685425 1339.784180,601.198547 
	C1349.094238,595.293762 1358.080566,588.684021 1367.864014,583.612488 
	C1381.013550,576.796143 1395.336792,574.586426 1410.094360,577.052856 
	C1430.052856,580.388672 1441.706787,594.104858 1441.921265,615.612610 
	C1442.278687,651.440552 1442.068115,687.274170 1442.095947,723.105408 
	C1442.099243,727.416443 1442.096558,731.727478 1442.096558,736.360107 
	C1429.301270,736.360107 1416.901123,736.360107 1403.966064,736.360107 
	C1403.966064,734.369080 1403.966064,732.584656 1403.966064,730.800232 
	C1403.966064,698.301758 1403.977173,665.803345 1403.962036,633.304871 
	C1403.952393,612.538879 1395.171143,605.447388 1374.838135,609.859619 
	C1362.822754,612.466919 1353.098755,619.660156 1343.142578,626.267700 
	C1342.092041,626.964905 1341.939819,629.521118 1341.936401,631.216064 
	C1341.869507,664.214294 1341.886597,697.212830 1341.886475,730.211243 
	C1341.886475,732.164551 1341.886475,734.117798 1341.886475,736.376953 
	C1329.444092,736.376953 1317.528320,736.376953 1304.928589,736.376953 
	C1304.928589,734.325928 1304.928711,732.396545 1304.928711,730.467163 
	C1304.928223,697.135437 1304.979004,663.803528 1304.888184,630.472046 
	C1304.867065,622.780823 1303.659668,615.413574 1295.643799,610.973389 
z"/>
<path fill="#FAAD3C" opacity="1.000000" stroke="none" 
	d="
M775.592773,672.166626 
	C778.148865,681.636658 781.089294,690.417114 788.643860,696.780640 
	C796.576355,703.462402 806.086731,706.053711 816.021118,705.841370 
	C836.980591,705.393311 857.923279,704.158997 878.872742,703.244568 
	C880.515381,703.172852 882.157104,703.080566 884.168335,702.979248 
	C885.404968,712.615112 886.606812,721.979858 887.959717,732.521973 
	C880.401550,734.166748 872.936279,736.271301 865.325684,737.361084 
	C838.174500,741.249146 810.987854,742.957703 783.985352,736.175781 
	C760.512695,730.280518 745.698608,715.181580 738.087891,692.534058 
	C733.057068,677.563660 731.107361,662.053406 730.363892,646.401245 
	C729.247803,622.904907 729.381226,599.408447 734.029236,576.226990 
	C737.340149,559.714355 742.937134,544.190430 755.660828,532.190552 
	C766.125183,522.321472 778.893677,517.394531 792.736877,515.196716 
	C822.047241,510.543121 851.128784,512.620972 880.025146,518.888916 
	C883.006470,519.535583 883.305054,521.036072 883.004211,523.455688 
	C881.957275,531.874939 880.960876,540.300476 879.867065,549.372314 
	C874.772583,549.100098 869.850525,548.743774 864.922180,548.591003 
	C849.108704,548.100769 833.285706,547.153137 817.479553,547.364197 
	C792.461548,547.698364 778.941833,559.572693 775.046509,584.250183 
	C770.443420,613.411255 770.572510,642.620117 775.592773,672.166626 
z"/>
<path fill="#F9AC3C" opacity="1.000000" stroke="none" 
	d="
M1849.437988,588.727173 
	C1849.246826,586.842346 1849.136475,585.385376 1848.968994,583.173584 
	C1858.786499,581.884949 1868.276611,580.230652 1877.837769,579.473328 
	C1895.260742,578.093323 1912.715210,576.786255 1930.178101,576.383362 
	C1938.052002,576.201599 1946.133057,577.610046 1953.848633,579.441162 
	C1971.728149,583.684448 1982.383179,596.168274 1984.912354,614.831909 
	C1985.492554,619.113953 1985.943604,623.452698 1985.953979,627.766602 
	C1986.038086,662.589783 1986.005249,697.413269 1985.993774,732.236633 
	C1985.993408,733.533264 1985.846191,734.829895 1985.734619,736.665344 
	C1976.260498,736.665344 1966.972290,736.759888 1957.692749,736.520325 
	C1956.756592,736.496155 1955.300537,734.564819 1955.058960,733.328430 
	C1953.696045,726.353638 1952.630615,719.320618 1951.432983,712.121704 
	C1944.678955,717.441833 1938.704346,722.998535 1931.938965,727.316223 
	C1912.433838,739.764648 1891.398804,743.866089 1869.000244,736.407471 
	C1853.435547,731.224426 1843.610474,720.361877 1841.716309,703.957886 
	C1840.540283,693.773438 1840.404297,683.239258 1841.569946,673.064697 
	C1843.633057,655.058411 1857.369995,642.731995 1877.048218,641.086182 
	C1890.624146,639.950745 1904.333618,640.357971 1917.984863,640.195618 
	C1927.461914,640.082886 1936.941406,640.173950 1946.915283,640.173950 
	C1947.302246,632.126038 1947.946899,624.392578 1944.727661,616.964966 
	C1942.386597,611.564209 1937.947144,608.334900 1932.370361,608.092529 
	C1919.095459,607.515320 1905.781006,607.260437 1892.499634,607.583374 
	C1879.212402,607.906555 1865.946167,609.089905 1852.202881,609.924561 
	C1851.295288,602.900879 1850.407104,596.027954 1849.437988,588.727173 
M1885.496216,667.855774 
	C1883.686401,671.128906 1880.978516,674.223816 1880.284668,677.718506 
	C1879.328491,682.533997 1879.690308,687.658081 1879.849121,692.638428 
	C1880.192749,703.408691 1885.603149,709.222534 1896.421753,710.040588 
	C1915.233643,711.463257 1931.009888,703.644653 1945.801147,693.150696 
	C1946.401001,692.725220 1947.041992,691.846252 1947.048218,691.172791 
	C1947.131104,682.273621 1947.103394,673.373474 1947.103394,664.238037 
	C1929.735840,664.238037 1913.115601,664.062012 1896.505005,664.380554 
	C1893.012939,664.447571 1889.555786,666.331238 1885.496216,667.855774 
z"/>
<path fill="#F9AC3C" opacity="1.000000" stroke="none" 
	d="
M949.328430,582.313049 
	C974.663391,574.396973 999.879211,574.174988 1025.115356,580.409912 
	C1045.156250,585.361267 1057.840332,598.339233 1062.987183,618.220032 
	C1069.876831,644.833008 1069.949097,671.607117 1063.111694,698.260132 
	C1057.843872,718.794617 1044.670044,731.749512 1024.123535,736.873840 
	C1001.584656,742.495056 978.936157,742.565186 956.404358,736.830383 
	C937.181091,731.937744 923.793884,720.158447 918.278198,700.993591 
	C910.129456,672.679749 910.208984,644.055908 918.327087,615.728943 
	C922.897644,599.780762 933.329651,588.552490 949.328430,582.313049 
M1021.041870,618.582642 
	C1017.582092,612.896057 1012.710266,608.739075 1006.116455,607.894836 
	C997.770142,606.826294 989.230591,605.720947 980.908447,606.364746 
	C967.624756,607.392456 958.788635,614.789062 955.921448,628.273926 
	C954.955139,632.818481 953.810669,637.397522 953.548035,642.006470 
	C952.581848,658.966736 951.580322,675.978271 957.009460,692.509033 
	C959.864258,701.201355 965.400879,707.475098 974.626160,709.001709 
	C982.110229,710.240295 989.860901,711.257996 997.366882,710.693176 
	C1014.468079,709.406372 1022.033997,703.321289 1024.881348,686.549683 
	C1027.088257,673.551147 1026.918335,660.100403 1027.189087,646.838135 
	C1027.383789,637.305603 1025.654419,627.947510 1021.041870,618.582642 
z"/>
<path fill="#FAAD3C" opacity="1.000000" stroke="none" 
	d="
M1611.862793,592.127808 
	C1628.732788,607.968323 1627.976929,637.389282 1621.995361,651.232971 
	C1615.129761,667.122986 1601.236938,671.502747 1585.673706,671.846008 
	C1565.364258,672.294006 1545.038208,671.985718 1524.719238,672.002502 
	C1522.911621,672.004028 1521.104004,672.002747 1519.334961,672.002747 
	C1517.326294,693.802979 1530.762451,708.518372 1554.233032,708.735718 
	C1573.176025,708.911194 1592.135986,707.282959 1611.087402,706.432251 
	C1613.227905,706.336182 1615.361938,706.092896 1618.054321,705.872498 
	C1619.349609,714.064209 1620.607178,722.017761 1622.047119,731.123901 
	C1612.522339,733.252747 1603.235962,735.679260 1593.816528,737.360352 
	C1574.205811,740.860474 1554.425537,741.848083 1534.654053,739.020996 
	C1519.232544,736.815918 1504.837646,731.962036 1494.174072,719.647400 
	C1485.245850,709.336853 1481.278809,696.862793 1479.375488,683.710510 
	C1476.566040,664.295898 1476.814819,644.854370 1480.457153,625.547729 
	C1485.500977,598.812012 1501.202759,583.005432 1528.362671,578.480713 
	C1548.859863,575.065979 1569.139893,575.379822 1589.308350,580.214111 
	C1597.652344,582.214111 1605.255859,585.927734 1611.862793,592.127808 
M1586.449341,637.709351 
	C1586.863770,635.758423 1587.386719,633.823425 1587.674927,631.854126 
	C1589.601440,618.691284 1583.387573,608.901062 1570.597290,606.316345 
	C1559.243164,604.021851 1547.809937,604.142944 1536.530029,607.678345 
	C1529.820923,609.781189 1525.198608,614.025146 1522.545654,620.259766 
	C1518.849854,628.944580 1518.283325,638.210693 1518.050903,647.809021 
	C1537.550537,647.809021 1556.660034,648.031128 1575.758423,647.666443 
	C1581.114014,647.564148 1584.967163,644.097656 1586.449341,637.709351 
z"/>
<path fill="#F9AC3C" opacity="1.000000" stroke="none" 
	d="
M1699.036011,711.000000 
	C1699.036011,719.652283 1699.036011,727.804504 1699.036011,736.322998 
	C1686.188599,736.322998 1673.632568,736.322998 1660.690430,736.322998 
	C1660.690430,684.349792 1660.690430,632.493164 1660.690430,580.350708 
	C1671.120483,580.350708 1681.376099,580.350708 1692.037964,580.350708 
	C1693.028564,588.041809 1694.019653,595.736816 1695.031860,603.595154 
	C1702.534180,598.778870 1709.554443,593.793335 1717.012085,589.582336 
	C1733.548706,580.244568 1751.185425,574.553223 1770.444824,576.625000 
	C1794.777344,579.242432 1806.620483,592.305908 1806.880127,616.920471 
	C1807.168213,644.237671 1806.962769,671.560059 1806.969727,698.880188 
	C1806.972900,711.198669 1806.970215,723.517212 1806.970215,736.263184 
	C1794.335205,736.263184 1781.944702,736.263184 1768.901367,736.263184 
	C1768.784668,734.568542 1768.541260,732.669556 1768.539795,730.770386 
	C1768.516357,698.785706 1768.537354,666.801086 1768.502075,634.816406 
	C1768.498169,631.323669 1768.340210,627.819336 1768.026978,624.340820 
	C1767.129639,614.370422 1761.914062,609.601135 1751.844849,608.963806 
	C1739.250244,608.166626 1727.932007,612.317200 1716.907104,617.651367 
	C1712.270020,619.894836 1707.865479,622.642395 1703.154907,624.702820 
	C1699.905884,626.123962 1698.934814,628.054688 1698.954590,631.538574 
	C1699.103882,657.858337 1699.036011,684.179382 1699.036011,711.000000 
z"/>
<path fill="#F8AC3D" opacity="1.000000" stroke="none" 
	d="
M1150.434570,704.904724 
	C1157.795166,705.944946 1164.807129,707.132935 1171.860596,707.480774 
	C1175.479614,707.659180 1176.726196,708.660156 1177.105103,712.213257 
	C1177.791992,718.657349 1179.203247,725.023926 1179.897217,731.467590 
	C1180.046875,732.855957 1178.706787,735.479980 1177.596191,735.766907 
	C1161.668823,739.881409 1145.594116,742.460083 1129.424561,737.105286 
	C1115.050415,732.344971 1107.112427,722.073792 1104.989624,707.244568 
	C1104.472900,703.633545 1104.334839,699.942261 1104.332397,696.287659 
	C1104.293579,637.496582 1104.304932,578.705566 1104.304810,519.914490 
	C1104.304810,517.964661 1104.304810,516.014771 1104.304810,513.734253 
	C1117.439819,513.734253 1129.998901,513.734253 1143.037842,513.734253 
	C1143.037842,515.586609 1143.039429,517.211426 1143.037598,518.836182 
	C1142.973267,575.128418 1142.940063,631.420654 1142.803467,687.712708 
	C1142.786987,694.545776 1143.885376,700.663269 1150.434570,704.904724 
z"/>
<path fill="#144584" opacity="1.000000" stroke="none" 
	d="
M1885.789307,667.616821 
	C1889.555786,666.331238 1893.012939,664.447571 1896.505005,664.380554 
	C1913.115601,664.062012 1929.735840,664.238037 1947.103394,664.238037 
	C1947.103394,673.373474 1947.131104,682.273621 1947.048218,691.172791 
	C1947.041992,691.846252 1946.401001,692.725220 1945.801147,693.150696 
	C1931.009888,703.644653 1915.233643,711.463257 1896.421753,710.040588 
	C1885.603149,709.222534 1880.192749,703.408691 1879.849121,692.638428 
	C1879.690308,687.658081 1879.328491,682.533997 1880.284668,677.718506 
	C1880.978516,674.223816 1883.686401,671.128906 1885.789307,667.616821 
z"/>
<path fill="#134584" opacity="1.000000" stroke="none" 
	d="
M1021.206055,618.913696 
	C1025.654419,627.947510 1027.383789,637.305603 1027.189087,646.838135 
	C1026.918335,660.100403 1027.088257,673.551147 1024.881348,686.549683 
	C1022.033997,703.321289 1014.468079,709.406372 997.366882,710.693176 
	C989.860901,711.257996 982.110229,710.240295 974.626160,709.001709 
	C965.400879,707.475098 959.864258,701.201355 957.009460,692.509033 
	C951.580322,675.978271 952.581848,658.966736 953.548035,642.006470 
	C953.810669,637.397522 954.955139,632.818481 955.921448,628.273926 
	C958.788635,614.789062 967.624756,607.392456 980.908447,606.364746 
	C989.230591,605.720947 997.770142,606.826294 1006.116455,607.894836 
	C1012.710266,608.739075 1017.582092,612.896057 1021.206055,618.913696 
z"/>
<path fill="#144584" opacity="1.000000" stroke="none" 
	d="
M1586.313965,638.085571 
	C1584.967163,644.097656 1581.114014,647.564148 1575.758423,647.666443 
	C1556.660034,648.031128 1537.550537,647.809021 1518.050903,647.809021 
	C1518.283325,638.210693 1518.849854,628.944580 1522.545654,620.259766 
	C1525.198608,614.025146 1529.820923,609.781189 1536.530029,607.678345 
	C1547.809937,604.142944 1559.243164,604.021851 1570.597290,606.316345 
	C1583.387573,608.901062 1589.601440,618.691284 1587.674927,631.854126 
	C1587.386719,633.823425 1586.863770,635.758423 1586.313965,638.085571 
z"/>
</svg>